<svg width="156" height="40" viewBox="0 0 156 40" fill="none" xmlns="http://www.w3.org/2000/svg">
<path d="M60.592 18.272C60.528 17.568 60.08 16.896 59.28 16.192C58.256 15.392 57.04 14.976 55.632 14.976H54.224C53.328 14.976 52.592 15.2 51.952 15.616C51.312 16.064 50.96 16.448 50.864 16.832C52.112 17.152 53.168 17.76 54.064 18.688C54.448 19.136 54.768 19.616 54.992 20.096L60.592 18.272ZM60.624 21.824L51.312 24.832L50 21.984L52.016 21.312C51.984 21.248 51.824 21.056 51.504 20.768C50.864 20.256 50.064 19.968 49.168 19.968H47.6V17.888C47.664 16.192 48.336 14.816 49.616 13.728C50.896 12.64 52.432 12.096 54.224 12.096H55.632C57.488 12.096 59.152 12.608 60.624 13.6V12.096H65.68V15.232H63.76V32H60.624V31.008C60.624 30.528 60.432 30.112 60.112 29.728C59.728 29.376 59.312 29.184 58.832 29.152C58.512 29.152 58.224 29.248 57.904 29.44L54.096 32H53.424C51.824 32 50.448 31.456 49.296 30.304C48.144 29.152 47.6 27.776 47.6 26.176V25.344H50.704V26.176C50.704 26.944 50.96 27.552 51.504 28.064C52.016 28.576 52.592 28.864 53.296 28.864L56.368 26.72C57.2 26.272 58.032 26.048 58.864 26.048C59.504 26.048 60.08 26.176 60.624 26.368V21.824ZM66.975 15.232H65.055V12.096H72.031V15.232H70.111V32H66.975V15.232ZM79.8311 32C78.0391 32 76.5031 31.36 75.2231 30.08C73.9431 28.8 73.3031 27.264 73.3031 25.44V19.52C73.3031 17.92 73.7511 16.48 74.6471 15.232H71.3831V12.096H80.7271V15.232C79.5431 15.232 78.5191 15.68 77.6871 16.512C76.8551 17.344 76.4391 18.368 76.4391 19.552V25.44C76.4391 26.4 76.7591 27.2 77.4311 27.872C78.0711 28.544 78.8711 28.864 79.8311 28.864H80.4071V32H79.8311ZM93.7261 15.232H87.1981L90.1101 18.272L90.9741 21.28C90.4621 21.44 89.7901 21.632 89.0221 21.888C88.2541 22.144 87.6461 22.336 87.2301 22.464C85.8221 23.104 85.1181 24.032 85.1181 25.248V26.144L93.7261 28.736V15.232ZM98.7821 12.096V15.232H96.8621V32H93.7261L82.0141 28.48V25.248C82.0141 23.968 82.3981 22.784 83.1661 21.76C83.9341 20.736 84.9581 19.968 86.2381 19.52C86.3661 19.456 86.5581 19.392 86.7821 19.328L82.8461 15.232H80.0941V12.096H98.7821ZM88.6381 35.392L83.6141 33.856L84.5101 30.88L89.5661 32.416L88.6381 35.392ZM100.061 15.232H98.1409V12.096H105.117V15.232H103.197V32H100.061V15.232ZM119.061 20.16C119.061 18.816 118.549 17.632 117.589 16.64C116.597 15.68 115.413 15.2 114.069 15.2H112.853C112.021 15.2 111.285 15.488 110.677 16.032C110.037 16.576 109.685 17.248 109.557 18.08H110.773C112.149 18.08 113.333 18.592 114.325 19.552C115.317 20.544 115.829 21.728 115.829 23.104C115.829 24.672 115.253 26.016 114.101 27.168C112.885 28.256 111.541 28.768 110.005 28.768H107.029V25.632H110.005C110.741 25.632 111.381 25.408 111.893 24.896C112.405 24.416 112.693 23.808 112.693 23.104C112.693 22.592 112.501 22.176 112.117 21.792C111.733 21.408 111.285 21.216 110.773 21.216H106.389L106.421 18.528C106.453 16.704 107.093 15.168 108.341 13.952C109.557 12.736 111.061 12.096 112.853 12.096H114.069C115.957 12.096 117.621 12.672 119.061 13.792V12.096H124.085V15.232H122.165V32H119.061V20.16ZM128.509 32H125.373V15.232H123.453V12.096H125.373V11.264C125.373 9.728 124.829 8.416 123.741 7.328C122.653 6.24 121.341 5.696 119.805 5.696H114.941C114.621 5.696 114.365 5.824 114.141 6.048C113.917 6.272 113.821 6.528 113.821 6.816C113.821 7.136 113.917 7.424 114.141 7.616C114.333 7.84 114.621 7.936 114.941 7.936H118.653C119.613 7.936 120.413 8.288 121.117 8.992C121.821 9.696 122.173 10.496 122.173 11.456V12.416H119.069V11.456C119.069 11.36 119.005 11.264 118.941 11.2C118.877 11.136 118.781 11.072 118.685 11.072H114.941C113.757 11.072 112.765 10.656 111.933 9.824C111.101 8.992 110.717 8 110.717 6.816C110.717 5.664 111.101 4.64 111.933 3.808C112.765 2.976 113.757 2.56 114.941 2.56H119.837C122.205 2.56 124.253 3.424 125.949 5.12C127.645 6.848 128.509 8.896 128.509 11.264V12.096H130.429V15.232H128.509V32ZM143.574 28.544V19.2L143.318 19.264C142.326 19.552 141.27 19.84 140.15 20.16C139.03 20.48 138.07 20.8 137.302 21.056C136.534 21.312 135.958 21.76 135.51 22.336C135.062 22.944 134.838 23.584 134.838 24.288V24.448L143.574 28.544ZM146.678 18.72V32H143.574L131.702 26.432V24.288C131.702 22.912 132.118 21.664 132.95 20.544C133.782 19.424 134.87 18.624 136.278 18.112C137.206 17.792 138.326 17.472 139.606 17.088C140.886 16.704 142.006 16.384 143.03 16.096C143.222 16.032 143.382 16 143.574 15.936V15.232H129.782V12.096H155.606V15.232H146.678V15.584H147.894C149.558 15.584 150.998 16.192 152.214 17.408C153.398 18.624 154.006 20.064 154.006 21.728V22.016C154.006 23.52 153.462 24.8 152.406 25.888C151.318 26.976 150.038 27.488 148.534 27.488V24.352C149.174 24.352 149.75 24.128 150.198 23.68C150.646 23.232 150.902 22.656 150.902 22.016V21.728C150.902 20.896 150.582 20.192 150.006 19.616C149.43 19.04 148.726 18.72 147.894 18.72H146.678Z" fill="#383941"/>
<g clip-path="url(#clip0_10202_3527)">
<path fill-rule="evenodd" clip-rule="evenodd" d="M22.0684 32.4141H27.5853V37.2416H22.0684V32.4141Z" fill="#0F766D"/>
<path fill-rule="evenodd" clip-rule="evenodd" d="M8.96484 8.96582H37.2409C38.7643 8.96582 39.9994 10.2009 39.9994 11.7246V30.3452C39.9994 31.8687 38.7643 33.1037 37.2409 33.1037H11.7236C10.1999 33.1037 8.96484 31.8687 8.96484 30.3452V8.96582Z" fill="#0D9488"/>
<path fill-rule="evenodd" clip-rule="evenodd" d="M18.9717 4.57916L15.8613 1.37939L16.3508 0L19.944 3.59985L19.9992 4.82758L18.9717 4.57916Z" fill="#FAB153"/>
<path fill-rule="evenodd" clip-rule="evenodd" d="M5.57251 15.2414L0 16.3516L4.98627 5.33783L15.0208 0.627441L16.3516 0L16.0275 1.63452L15.2414 5.57251L5.57251 15.2414Z" fill="#0D9488"/>
<path fill-rule="evenodd" clip-rule="evenodd" d="M18.6204 8.96521C16.4213 9.80048 14.437 11.1179 12.8135 12.8205C11.1143 14.4425 9.79956 16.4243 8.96521 18.6204L5.57227 15.2411C6.29858 12.9798 7.57605 10.9345 9.28931 9.28931C10.9345 7.57605 12.9798 6.29858 15.2411 5.57227L18.6204 8.96521Z" fill="#0F766D"/>
<path fill-rule="evenodd" clip-rule="evenodd" d="M21.9787 4.39298C22.1164 4.48239 22.2064 4.62918 22.2238 4.79245C22.2412 4.95572 22.1841 5.11808 22.0684 5.23435L20.6408 6.66196C20.5304 6.78373 20.3708 6.84873 20.2066 6.83774C20.0427 6.82706 19.8928 6.74192 19.7995 6.60672L18.9236 5.22763C18.7909 5.00333 18.8308 4.71708 19.02 4.53794L19.9304 3.61386C20.1095 3.42466 20.3958 3.38468 20.6201 3.51712L21.9787 4.39298Z" fill="#FFBA6E"/>
<path fill-rule="evenodd" clip-rule="evenodd" d="M17.5853 36.5518H32.0683C33.0204 36.5518 33.7922 37.3235 33.7922 38.2757C33.7922 39.2281 33.0204 39.9999 32.0683 39.9999H17.5853C16.6331 39.9999 15.8613 39.2281 15.8613 38.2757C15.8613 37.3235 16.6331 36.5518 17.5853 36.5518Z" fill="#0D9488"/>
<path fill-rule="evenodd" clip-rule="evenodd" d="M13.7932 12.4141H35.1725C35.9343 12.4141 36.5519 13.0314 36.5519 13.7932V28.2759C36.5519 29.0379 35.9343 29.6553 35.1725 29.6553H13.7932C13.0314 29.6553 12.4141 29.0379 12.4141 28.2759V13.7932C12.4141 13.0314 13.0314 12.4141 13.7932 12.4141Z" fill="#E4E5E9"/>
<path fill-rule="evenodd" clip-rule="evenodd" d="M21.379 18.207V24.552C21.3741 24.8928 21.552 25.2105 21.8456 25.3842C22.1389 25.5578 22.503 25.5615 22.7996 25.3933L28.4756 22.221C28.7792 22.0498 28.9675 21.7282 28.9675 21.3797C28.9675 21.0308 28.7792 20.7092 28.4756 20.5383L22.7996 17.3657C22.503 17.1978 22.1389 17.2012 21.8456 17.3751C21.552 17.5488 21.3741 17.8662 21.379 18.207Z" fill="#0F766D"/>
<path fill-rule="evenodd" clip-rule="evenodd" d="M33.7928 19.31C33.412 19.31 33.1031 19.0012 33.1031 18.6203V15.8618H27.5859C27.205 15.8618 26.8965 15.553 26.8965 15.1721C26.8965 14.7913 27.205 14.4824 27.5859 14.4824H33.1031C33.8652 14.4824 34.4825 15.1001 34.4825 15.8618V18.6203C34.4825 19.0012 34.1737 19.31 33.7928 19.31Z" fill="white"/>
<path fill-rule="evenodd" clip-rule="evenodd" d="M33.7932 22.7582C33.4124 22.7582 33.1035 22.4497 33.1035 22.0688V21.3792C33.1035 20.9983 33.4124 20.6895 33.7932 20.6895C34.1741 20.6895 34.4829 20.9983 34.4829 21.3792V22.0688C34.4829 22.4497 34.1741 22.7582 33.7932 22.7582Z" fill="white"/>
</g>
<defs>
<clipPath id="clip0_10202_3527">
<rect width="40" height="40" fill="white"/>
</clipPath>
</defs>
</svg>
