<svg width="510" height="453" viewBox="0 0 510 453" fill="none" xmlns="http://www.w3.org/2000/svg">
<path d="M422.217 205.861C422.047 205.861 421.877 205.861 421.708 205.859C421.55 205.857 421.422 205.728 421.424 205.57C421.426 205.412 421.554 205.286 421.711 205.286C421.712 205.286 421.712 205.286 421.713 205.286C423.64 205.303 425.598 205.219 427.528 205.033C427.686 205.018 427.826 205.134 427.841 205.291C427.856 205.448 427.741 205.589 427.583 205.604C425.803 205.775 423.998 205.861 422.217 205.861ZM412.398 204.984C412.381 204.984 412.364 204.982 412.347 204.979C410.425 204.633 408.499 204.179 406.622 203.631C406.47 203.587 406.383 203.427 406.427 203.275C406.471 203.123 406.631 203.036 406.782 203.081C408.64 203.623 410.547 204.072 412.448 204.415C412.604 204.443 412.708 204.593 412.68 204.748C412.655 204.887 412.535 204.984 412.398 204.984ZM436.759 203.944C436.632 203.944 436.516 203.859 436.482 203.731C436.442 203.578 436.532 203.421 436.685 203.38C438.556 202.879 440.418 202.274 442.219 201.582C442.366 201.525 442.532 201.599 442.589 201.747C442.646 201.895 442.573 202.06 442.425 202.117C440.604 202.816 438.724 203.428 436.833 203.934C436.808 203.94 436.784 203.944 436.759 203.944ZM397.977 200.274C397.935 200.274 397.892 200.265 397.852 200.245C396.096 199.392 394.364 198.436 392.705 197.402C392.571 197.318 392.529 197.142 392.613 197.007C392.697 196.873 392.873 196.832 393.008 196.915C394.65 197.938 396.364 198.885 398.103 199.73C398.245 199.799 398.304 199.971 398.235 200.114C398.185 200.215 398.083 200.274 397.977 200.274ZM450.736 198.056C450.638 198.056 450.543 198.005 450.489 197.915C450.408 197.779 450.453 197.603 450.59 197.522C452.249 196.536 453.876 195.449 455.425 194.292C455.552 194.198 455.731 194.223 455.826 194.35C455.921 194.477 455.895 194.656 455.768 194.751C454.203 195.921 452.56 197.019 450.882 198.016C450.837 198.043 450.786 198.056 450.736 198.056ZM385.357 191.856C385.29 191.856 385.222 191.832 385.167 191.784C383.704 190.489 382.293 189.103 380.974 187.665C380.867 187.548 380.875 187.367 380.991 187.259C381.108 187.152 381.289 187.16 381.396 187.277C382.702 188.701 384.098 190.072 385.547 191.353C385.666 191.458 385.677 191.639 385.572 191.758C385.516 191.823 385.437 191.856 385.357 191.856ZM462.591 188.601C462.52 188.601 462.449 188.575 462.394 188.522C462.279 188.413 462.274 188.232 462.383 188.117C463.716 186.718 464.99 185.232 466.171 183.7C466.268 183.575 466.448 183.552 466.573 183.648C466.698 183.745 466.722 183.925 466.625 184.051C465.432 185.598 464.145 187.1 462.798 188.514C462.742 188.572 462.667 188.601 462.591 188.601ZM375.468 180.358C375.374 180.358 375.282 180.312 375.227 180.227C374.167 178.586 373.183 176.869 372.303 175.126C372.231 174.985 372.288 174.813 372.429 174.741C372.571 174.67 372.743 174.727 372.815 174.868C373.686 176.593 374.66 178.291 375.709 179.915C375.795 180.048 375.757 180.226 375.624 180.312C375.575 180.344 375.521 180.358 375.468 180.358ZM471.469 176.303C471.424 176.303 471.377 176.292 471.334 176.269C471.195 176.195 471.141 176.021 471.216 175.881C472.126 174.173 472.955 172.399 473.679 170.608C473.739 170.462 473.906 170.391 474.053 170.45C474.2 170.509 474.27 170.676 474.211 170.823C473.478 172.633 472.641 174.425 471.722 176.151C471.671 176.247 471.572 176.303 471.469 176.303ZM369.063 166.611C368.94 166.611 368.827 166.531 368.789 166.408C368.215 164.547 367.733 162.629 367.355 160.708C367.324 160.552 367.426 160.401 367.581 160.371C367.736 160.341 367.887 160.442 367.917 160.597C368.292 162.498 368.769 164.397 369.336 166.24C369.383 166.392 369.298 166.552 369.147 166.598C369.119 166.607 369.091 166.611 369.063 166.611ZM476.713 162.068C476.692 162.068 476.672 162.066 476.651 162.061C476.496 162.027 476.398 161.875 476.433 161.72C476.847 159.83 477.165 157.897 477.377 155.975C477.394 155.818 477.535 155.705 477.693 155.722C477.851 155.739 477.964 155.881 477.947 156.038C477.732 157.98 477.411 159.934 476.993 161.842C476.963 161.976 476.844 162.068 476.713 162.068ZM366.596 151.643C366.441 151.643 366.313 151.52 366.309 151.364C366.294 150.843 366.287 150.315 366.287 149.796C366.287 148.363 366.343 146.913 366.454 145.487C366.467 145.328 366.604 145.208 366.762 145.223C366.92 145.235 367.038 145.373 367.026 145.531C366.916 146.943 366.861 148.378 366.861 149.796C366.861 150.31 366.868 150.832 366.883 151.348C366.887 151.506 366.763 151.638 366.605 151.642C366.601 151.643 366.598 151.643 366.596 151.643ZM477.899 146.944C477.748 146.944 477.621 146.827 477.612 146.674C477.499 144.75 477.283 142.803 476.968 140.89L476.955 140.807C476.929 140.651 477.035 140.504 477.19 140.478C477.346 140.452 477.494 140.558 477.52 140.714L477.534 140.796C477.851 142.73 478.07 144.696 478.184 146.641C478.194 146.799 478.073 146.934 477.915 146.944C477.91 146.944 477.905 146.944 477.899 146.944ZM368.25 136.565C368.227 136.565 368.203 136.563 368.18 136.556C368.026 136.518 367.933 136.362 367.972 136.208C368.448 134.315 369.032 132.424 369.708 130.589C369.762 130.44 369.927 130.364 370.076 130.419C370.225 130.474 370.301 130.639 370.246 130.787C369.578 132.604 369 134.475 368.528 136.349C368.495 136.479 368.378 136.565 368.25 136.565ZM474.949 131.98C474.83 131.98 474.719 131.905 474.678 131.787C474.049 129.957 473.316 128.142 472.499 126.392C472.432 126.248 472.494 126.078 472.638 126.01C472.781 125.944 472.952 126.005 473.019 126.149C473.844 127.917 474.585 129.752 475.22 131.601C475.272 131.75 475.192 131.914 475.043 131.965C475.012 131.975 474.981 131.98 474.949 131.98ZM373.928 122.498C373.88 122.498 373.831 122.485 373.786 122.46C373.649 122.381 373.601 122.206 373.68 122.069C374.651 120.373 375.722 118.711 376.864 117.126C376.957 116.997 377.136 116.968 377.264 117.061C377.393 117.154 377.422 117.332 377.329 117.461C376.199 119.03 375.138 120.676 374.178 122.353C374.125 122.446 374.028 122.498 373.928 122.498ZM468.103 118.45C468.012 118.45 467.922 118.407 467.867 118.326C466.767 116.739 465.569 115.191 464.307 113.726C464.204 113.606 464.217 113.425 464.337 113.322C464.458 113.218 464.639 113.232 464.742 113.352C466.017 114.832 467.227 116.396 468.339 118C468.429 118.13 468.396 118.308 468.266 118.399C468.216 118.433 468.159 118.45 468.103 118.45ZM383.179 110.476C383.106 110.476 383.031 110.447 382.975 110.39C382.864 110.277 382.865 110.096 382.978 109.985C384.369 108.612 385.847 107.298 387.371 106.081C387.495 105.982 387.675 106.002 387.774 106.126C387.873 106.249 387.853 106.43 387.729 106.529C386.22 107.734 384.757 109.034 383.381 110.394C383.325 110.448 383.252 110.476 383.179 110.476ZM457.847 107.277C457.783 107.277 457.718 107.255 457.665 107.211C456.176 105.978 454.606 104.809 452.997 103.737C452.865 103.649 452.829 103.471 452.917 103.339C453.005 103.207 453.183 103.172 453.314 103.259C454.94 104.342 456.527 105.523 458.03 106.77C458.152 106.871 458.169 107.051 458.068 107.173C458.012 107.241 457.93 107.277 457.847 107.277ZM395.321 101.391C395.22 101.391 395.123 101.338 395.071 101.243C394.994 101.105 395.044 100.93 395.183 100.854C396.892 99.9087 398.672 99.0441 400.471 98.2845C400.617 98.223 400.785 98.2912 400.847 98.4371C400.908 98.583 400.84 98.7512 400.694 98.8127C398.913 99.5644 397.152 100.42 395.461 101.355C395.416 101.38 395.368 101.391 395.321 101.391ZM444.965 99.2676C444.926 99.2676 444.887 99.2598 444.849 99.2425C443.081 98.4527 441.254 97.7491 439.417 97.1499C439.267 97.1008 439.184 96.9392 439.233 96.7883C439.282 96.638 439.444 96.5553 439.595 96.6045C441.451 97.2092 443.297 97.9207 445.083 98.7182C445.227 98.783 445.292 98.9524 445.227 99.0972C445.179 99.2045 445.075 99.2676 444.965 99.2676ZM409.473 95.9388C409.343 95.9388 409.225 95.8499 409.194 95.7175C409.158 95.5632 409.253 95.409 409.407 95.3726C410.661 95.0781 411.942 94.8221 413.217 94.6131C413.872 94.5058 414.536 94.4085 415.193 94.3241C415.349 94.3035 415.493 94.4152 415.513 94.5717C415.534 94.7288 415.423 94.8724 415.266 94.8925C414.616 94.9758 413.958 95.0719 413.311 95.1781C412.048 95.3855 410.78 95.6381 409.539 95.9299C409.516 95.9366 409.495 95.9388 409.473 95.9388ZM430.4 95.0272C430.386 95.0272 430.372 95.0261 430.358 95.0239C428.446 94.7428 426.495 94.5611 424.562 94.4834C424.403 94.4773 424.28 94.3437 424.287 94.1855C424.293 94.0274 424.425 93.9022 424.584 93.9106C426.538 93.9888 428.509 94.1727 430.442 94.4566C430.598 94.4795 430.707 94.6254 430.684 94.7819C430.663 94.925 430.541 95.0272 430.4 95.0272Z" fill="#FF8C18"/>
<path d="M60.9376 453C58.3875 453 55.8168 452.839 53.297 452.521C52.9565 452.479 52.7153 452.167 52.7577 451.827C52.8013 451.486 53.1104 451.246 53.4522 451.287C55.9198 451.599 58.4384 451.756 60.9376 451.756C62.4271 451.756 63.9397 451.701 65.4329 451.589C65.7747 451.566 66.0874 451.819 66.1141 452.161C66.1395 452.503 65.8983 452.801 65.5553 452.827L65.5178 452.829C64.0016 452.942 62.4574 453 60.9376 453ZM84.3403 448.322C84.0967 448.322 83.8664 448.179 83.7671 447.94C83.6349 447.624 83.784 447.259 84.1004 447.127C87.7897 445.581 91.3397 443.652 94.6521 441.39C94.9357 441.196 95.3224 441.269 95.5163 441.553C95.7102 441.836 95.6363 442.223 95.3539 442.417C91.9724 444.726 88.3485 446.695 84.5815 448.273C84.5015 448.306 84.4203 448.322 84.3403 448.322ZM34.8029 447.028C34.712 447.028 34.6199 447.009 34.5327 446.967C30.8542 445.191 27.3382 443.034 24.0803 440.555C23.8076 440.347 23.7542 439.958 23.9627 439.684C24.17 439.41 24.5602 439.358 24.8341 439.566C28.0254 441.995 31.4699 444.107 35.0744 445.847C35.3835 445.996 35.5132 446.368 35.3641 446.677C35.255 446.899 35.0332 447.028 34.8029 447.028ZM109.044 429.189C108.913 429.189 108.779 429.148 108.667 429.062C108.394 428.853 108.341 428.463 108.549 428.19C110.979 425 113.094 421.556 114.835 417.953C114.984 417.644 115.356 417.515 115.665 417.664C115.974 417.813 116.104 418.185 115.954 418.494C114.178 422.171 112.019 425.687 109.538 428.943C109.417 429.104 109.231 429.189 109.044 429.189ZM11.1142 426.646C10.9154 426.646 10.7203 426.551 10.6003 426.374C8.29018 422.994 6.31823 419.371 4.73898 415.605C4.60566 415.288 4.75474 414.923 5.07229 414.79C5.38983 414.658 5.75343 414.807 5.88675 415.123C7.43449 418.813 9.36523 422.362 11.6281 425.673C11.822 425.956 11.7493 426.343 11.4657 426.537C11.3578 426.611 11.2354 426.646 11.1142 426.646ZM120.902 400.276C120.876 400.276 120.85 400.275 120.823 400.271C120.483 400.228 120.241 399.917 120.285 399.577C120.599 397.1 120.758 394.572 120.758 392.064C120.758 390.574 120.701 389.061 120.59 387.568L120.582 387.453C120.557 387.111 120.812 386.812 121.155 386.787C121.498 386.761 121.796 387.017 121.822 387.36L121.83 387.477C121.943 389 122.001 390.543 122.001 392.064C122.001 394.625 121.839 397.205 121.518 399.733C121.479 400.047 121.211 400.276 120.902 400.276ZM0.795087 397.157C0.472692 397.157 0.199991 396.908 0.175751 396.582L0.170898 396.524C0.0581808 395 0 393.457 0 391.936C0 389.396 0.159991 386.835 0.475114 384.325C0.517535 383.984 0.82902 383.744 1.1696 383.786C1.51017 383.828 1.75137 384.139 1.70895 384.48C1.39989 386.939 1.24353 389.448 1.24353 391.936C1.24353 393.427 1.29928 394.94 1.41078 396.432L1.41564 396.489C1.44109 396.83 1.18536 397.13 0.842358 397.155C0.826602 397.155 0.810844 397.157 0.795087 397.157ZM116.668 369.201C116.426 369.201 116.194 369.058 116.095 368.821C114.544 365.134 112.609 361.586 110.343 358.278C110.149 357.994 110.222 357.607 110.504 357.413C110.788 357.219 111.174 357.292 111.368 357.575C113.682 360.952 115.658 364.574 117.24 368.338C117.374 368.655 117.225 369.02 116.908 369.153C116.83 369.186 116.748 369.201 116.668 369.201ZM6.58124 366.449C6.49033 366.449 6.39822 366.43 6.31217 366.387C6.00311 366.238 5.87342 365.866 6.0225 365.557C7.79567 361.878 9.95184 358.36 12.4292 355.101C12.6365 354.828 13.0267 354.775 13.3006 354.982C13.5745 355.189 13.6267 355.58 13.4194 355.854C10.9918 359.046 8.88043 362.492 7.14361 366.096C7.03453 366.319 6.81273 366.449 6.58124 366.449ZM97.4991 344.525C97.3682 344.525 97.2362 344.484 97.1234 344.399C93.9298 341.974 90.4828 339.863 86.8771 338.128C86.568 337.979 86.4371 337.608 86.5862 337.298C86.7353 336.989 87.1061 336.859 87.4164 337.007C91.0961 338.779 94.6146 340.932 97.8749 343.409C98.1488 343.616 98.2021 344.006 97.9937 344.28C97.8725 344.441 97.687 344.525 97.4991 344.525ZM26.9527 342.75C26.754 342.75 26.5588 342.656 26.4388 342.48C26.2449 342.197 26.3176 341.81 26.6013 341.616C29.9803 339.305 33.6031 337.33 37.3688 335.749C37.6851 335.615 38.0499 335.764 38.1833 336.081C38.3166 336.397 38.1675 336.762 37.8512 336.895C34.163 338.444 30.6142 340.377 27.3054 342.641C27.1964 342.715 27.0739 342.75 26.9527 342.75ZM68.5708 332.71C68.5454 332.71 68.5187 332.709 68.4933 332.705C66.0438 332.399 63.5446 332.244 61.0648 332.244C59.5741 332.244 58.0615 332.299 56.5695 332.411L56.4834 332.417C56.138 332.44 55.8423 332.185 55.8168 331.844C55.7914 331.501 56.0483 331.202 56.3901 331.177L56.4774 331.171C58.0009 331.058 59.5438 331 61.0648 331C63.5955 331 66.1468 331.159 68.6472 331.471C68.9878 331.514 69.2302 331.825 69.1865 332.166C69.1478 332.48 68.8799 332.71 68.5708 332.71Z" fill="#FF8C18"/>
<path d="M353.812 156.754L345.975 158.851L354.832 191.952C355.041 192.735 355.947 193.172 356.856 192.93L361.403 191.713C362.311 191.47 362.878 190.638 362.668 189.856L358.748 175.204C358.435 174.036 359.28 172.795 360.636 172.433C361.991 172.07 362.836 170.83 362.524 169.662L358.719 155.44L353.812 156.754Z" fill="#FF8C18"/>
<path d="M358.27 192.535L353.723 193.752C352.814 193.995 351.908 193.557 351.699 192.774L347.361 176.563L342.842 159.673L350.679 157.576L355.586 156.263L357.407 163.066C357.407 163.066 357.407 163.066 357.407 163.066L359.391 170.484C359.436 170.65 359.457 170.818 359.456 170.986C359.452 171.988 358.665 172.944 357.503 173.254C356.148 173.617 355.303 174.857 355.615 176.025L359.536 190.678C359.745 191.46 359.179 192.291 358.27 192.535Z" fill="#FF8C18"/>
<path d="M357.406 163.065C357.406 163.065 357.406 163.065 357.406 163.065C357.375 163.164 354.754 171.546 347.361 176.562L342.842 159.672L350.679 157.575L355.586 156.262L357.406 163.065Z" fill="#FF8C18"/>
<path d="M335.433 164.856C336.236 162.549 335.284 158.147 332.83 153.72C330.376 149.292 327.148 146.152 324.765 145.611L324.428 145.002L323.019 145.783C320.732 147.051 321.418 152.659 324.55 158.31C327.682 163.96 332.075 167.514 334.361 166.246L335.77 165.465L335.433 164.856Z" fill="#FF8C18"/>
<path d="M355.272 159.051L340.029 167.499C338.869 168.143 337.301 167.852 335.574 166.829C332.778 165.172 329.565 161.596 326.992 156.954C325.865 154.921 324.977 152.893 324.34 150.982C323.774 149.279 323.407 147.669 323.249 146.233C323.171 145.519 323.146 144.848 323.172 144.231C323.203 143.543 323.298 142.922 323.46 142.378C323.748 141.419 324.243 140.705 324.958 140.309L340.199 131.86L340.456 132.324L341.403 134.031L341.457 134.128L353.989 156.739L355.015 158.588L355.272 159.051Z" fill="#E6E6E6"/>
<path d="M341.457 134.128L339.837 135.739L323.172 144.231C323.202 143.543 323.298 142.922 323.46 142.378C323.747 141.419 324.243 140.705 324.958 140.309L340.199 131.86L340.456 132.324L341.402 134.031L341.457 134.128Z" fill="#F2F2F2"/>
<path d="M400.9 148.122L355.726 158.575C355.586 158.593 355.442 158.601 355.295 158.6C355.204 158.6 355.111 158.596 355.017 158.589L355.274 159.052L340.032 167.5C338.871 168.144 337.304 167.853 335.576 166.83L351.752 157.278H351.752L353.992 156.739L396.054 146.612L399.805 146.146L400.9 148.122Z" fill="#DBDBDB"/>
<path d="M356.615 158.305L341.543 131.113L339.412 132.295L354.484 159.486L356.615 158.305Z" fill="#37A110"/>
<path d="M354.718 159.357C357.756 157.672 356.845 150.22 352.683 142.712C348.52 135.203 342.683 130.482 339.644 132.166C336.606 133.85 337.517 141.303 341.679 148.811C345.842 156.32 351.679 161.041 354.718 159.357Z" fill="#E2973D"/>
<path d="M400.898 148.121L355.723 158.575C355.583 158.592 355.44 158.601 355.293 158.6C355.202 158.6 355.11 158.596 355.015 158.589C354.037 158.511 352.924 158.055 351.75 157.279H351.749C350.255 156.29 348.664 154.786 347.128 152.888C345.912 151.389 344.732 149.643 343.663 147.713C342.594 145.785 341.738 143.859 341.111 142.034C340.485 140.215 340.083 138.496 339.919 136.974C339.872 136.546 339.845 136.134 339.837 135.739C339.806 134.354 340.009 133.184 340.457 132.325C340.569 132.106 340.699 131.908 340.844 131.731L373.647 98.96L373.985 99.5697L390.703 129.73L399.803 146.147L400.898 148.121Z" fill="#FF8C18"/>
<path d="M390.703 129.729L385.561 137.427C385.561 137.427 358.335 150.028 339.92 136.974C339.67 134.664 339.964 132.804 340.844 131.73L352.956 119.63L353.732 118.854L373.648 98.96L376.773 104.598L378.827 108.305L390.703 129.729Z" fill="#FF8C18"/>
<path d="M400.898 148.122L355.723 158.574C355.584 158.592 355.44 158.6 355.293 158.6C355.201 158.599 355.108 158.595 355.015 158.588C354.037 158.511 352.924 158.054 351.75 157.278L353.99 156.739L396.051 146.612L399.803 146.146L400.898 148.122Z" fill="#FF8C18"/>
<path d="M373.985 99.5692L372.068 103.706L339.837 135.739C339.806 134.354 340.009 133.184 340.457 132.325C340.569 132.106 340.699 131.908 340.844 131.731L373.647 98.96L373.985 99.5692Z" fill="#E2973D"/>
<path d="M419.641 150.149C431.572 143.535 432.786 122.915 422.352 104.093C411.918 85.2717 393.788 75.3753 381.857 81.9893C369.926 88.6032 368.712 109.223 379.146 128.045C389.58 146.866 407.71 156.763 419.641 150.149Z" fill="#FF8C18"/>
<path d="M421.198 149.285C432.962 142.764 434.04 122.219 423.606 103.398C413.172 84.5759 395.177 74.6044 383.413 81.1257C371.65 87.647 370.572 108.192 381.006 127.013C391.44 145.835 409.434 155.807 421.198 149.285Z" fill="#DEDEDE"/>
<path d="M421.921 145.427C432.476 139.575 433.231 120.759 423.607 103.398C413.983 86.0379 397.625 76.7078 387.07 82.5589C376.515 88.41 375.761 107.227 385.384 124.587C395.008 141.948 411.366 151.278 421.921 145.427Z" fill="#F2F2F2"/>
<path d="M421.431 104.606C412.098 87.7696 396.464 78.5935 386.511 84.1104C382.522 86.322 380.051 90.5585 379.123 95.9256C378.258 100.928 378.734 106.913 380.57 113.156C381.678 116.925 383.284 120.788 385.388 124.586C387.493 128.383 389.919 131.791 392.528 134.728C396.849 139.594 401.673 143.169 406.373 145.087C411.417 147.144 416.319 147.293 420.309 145.082C430.261 139.564 430.764 121.443 421.431 104.606Z" fill="#E6E6E6"/>
<path d="M406.373 145.087C398.834 142.012 390.98 134.674 385.388 124.587C379.797 114.498 377.735 103.95 379.123 95.9268C386.381 97.4615 395.003 104.98 401.057 115.901C407.111 126.823 408.918 138.119 406.373 145.087Z" fill="#DBDBDB"/>
<path d="M407.135 121.884L392.525 134.729C391.878 134.001 391.243 133.244 390.622 132.46C388.734 130.079 386.969 127.443 385.385 124.586C384.087 122.245 382.98 119.88 382.062 117.526C381.49 116.063 380.992 114.602 380.566 113.156L399.202 107.572L401.988 112.598L406.043 119.913L407.135 121.884Z" fill="#FF8C18"/>
<path d="M401.988 112.598L399.579 118.119C399.579 118.119 389.867 121.559 382.062 117.526C381.49 116.063 380.992 114.602 380.566 113.156L399.202 107.572L401.988 112.598Z" fill="#FF8C18"/>
<path d="M407.135 121.884L392.524 134.728C391.878 134.001 391.243 133.244 390.621 132.46L405.14 120.558L406.043 119.913L407.135 121.884Z" fill="#FF8C18"/>
<path d="M407.396 112.384C405.206 108.432 401.536 106.278 399.2 107.573C396.863 108.868 396.745 113.121 398.936 117.073C401.127 121.025 404.796 123.179 407.133 121.884C409.469 120.589 409.587 116.336 407.396 112.384ZM401.051 115.901C399.956 113.925 400.015 111.798 401.183 111.15C402.351 110.502 404.186 111.579 405.282 113.556C406.377 115.532 406.318 117.659 405.15 118.306C403.982 118.954 402.147 117.877 401.051 115.901Z" fill="#E2973D"/>
<path d="M405.153 118.307C406.321 117.659 406.38 115.532 405.284 113.556C404.189 111.58 402.354 110.503 401.185 111.151C400.017 111.798 399.958 113.925 401.054 115.901C402.149 117.878 403.984 118.955 405.153 118.307Z" fill="white"/>
<path d="M330.077 154.254L329.92 153.97C329.783 153.724 329.872 153.413 330.119 153.276L337.217 149.342C337.463 149.205 337.774 149.294 337.911 149.541L338.068 149.824C338.205 150.07 338.115 150.381 337.869 150.518L330.771 154.453C330.524 154.59 330.213 154.501 330.077 154.254ZM331.48 156.786L331.323 156.502C331.186 156.256 331.275 155.945 331.521 155.808L338.62 151.873C338.866 151.736 339.177 151.826 339.314 152.072L339.471 152.356C339.608 152.602 339.518 152.913 339.272 153.05L332.174 156.985C331.927 157.121 331.616 157.032 331.48 156.786ZM332.883 159.317L332.726 159.033C332.589 158.787 332.678 158.476 332.925 158.339L340.023 154.405C340.269 154.268 340.58 154.357 340.717 154.604L340.874 154.887C341.011 155.133 340.922 155.444 340.675 155.581L333.577 159.516C333.33 159.652 333.019 159.563 332.883 159.317Z" fill="#FF8C18"/>
<path d="M234.021 129C239.939 131.232 250.52 139.405 245.507 154.246" stroke="black" stroke-width="3"/>
<path d="M254.498 164.325C260.388 164.426 273.897 166.892 280.816 175.95" stroke="black" stroke-width="3"/>
<path d="M250.972 157.235C253.906 154.545 259.292 146.541 257.365 136.041" stroke="black" stroke-width="3"/>
<path d="M253.825 161.111C254.985 159.116 259.758 154.993 269.568 154.467" stroke="black" stroke-width="3"/>
<g clip-path="url(#clip0_14040_1464)">
<rect x="389" y="67.8916" width="42" height="20" rx="10" transform="rotate(-85.8887 389 67.8916)" fill="#F2ECAE"/>
<path d="M395.492 54.6752C395.508 54.4518 395.546 54.1979 395.607 53.9135C395.66 53.6205 395.744 53.3498 395.858 53.1014C395.964 52.8523 396.099 52.6455 396.263 52.4809C396.419 52.3156 396.605 52.2408 396.821 52.2563C396.948 52.2654 397.054 52.3091 397.136 52.3872C397.219 52.4653 397.254 52.5842 397.243 52.7438C397.234 52.8635 397.201 52.9854 397.144 53.1097C397.088 53.2259 397.03 53.3621 396.971 53.5182C396.904 53.6658 396.839 53.8416 396.776 54.0457C396.714 54.2417 396.673 54.4754 396.654 54.7467C396.616 55.2733 396.684 55.6712 396.857 55.9403C397.022 56.2009 397.269 56.3429 397.596 56.3664C397.82 56.3825 398.011 56.3401 398.171 56.2393C398.33 56.1385 398.473 56.0003 398.598 55.8248C398.715 55.6408 398.818 55.4356 398.906 55.2094C398.995 54.9752 399.081 54.7367 399.162 54.4939C399.254 54.2198 399.362 53.9508 399.485 53.6869C399.609 53.4151 399.762 53.1775 399.945 52.9741C400.128 52.7707 400.352 52.6144 400.617 52.505C400.882 52.3877 401.21 52.3431 401.601 52.3713C402.008 52.4005 402.369 52.5027 402.686 52.6778C402.994 52.8524 403.254 53.0796 403.467 53.3596C403.671 53.639 403.824 53.9668 403.925 54.343C404.019 54.7186 404.05 55.1219 404.019 55.5528C404.002 55.7922 403.958 56.0697 403.887 56.3855C403.824 56.7018 403.73 56.9998 403.606 57.2797C403.474 57.5589 403.313 57.7919 403.123 57.9788C402.925 58.1651 402.694 58.2488 402.431 58.2298C402.271 58.2184 402.147 58.1693 402.057 58.0826C401.967 57.988 401.928 57.8569 401.94 57.6893C401.95 57.5536 401.986 57.4439 402.048 57.3602C402.102 57.2758 402.164 57.2041 402.232 57.1448C402.457 56.9203 402.616 56.6591 402.71 56.361C402.803 56.063 402.862 55.7543 402.884 55.4352C402.898 55.2516 402.899 55.0593 402.89 54.8581C402.873 54.6483 402.826 54.4565 402.751 54.2826C402.675 54.1087 402.561 53.9602 402.41 53.837C402.25 53.7133 402.031 53.6414 401.752 53.6213C401.496 53.6029 401.285 53.6399 401.118 53.7321C400.944 53.8158 400.794 53.9375 400.671 54.097C400.547 54.2565 400.441 54.4494 400.352 54.6757C400.265 54.8939 400.175 55.1321 400.084 55.3903C399.983 55.6798 399.875 55.9647 399.758 56.2451C399.642 56.5255 399.496 56.7717 399.32 56.9836C399.137 57.195 398.916 57.3636 398.658 57.4895C398.393 57.6068 398.065 57.6514 397.674 57.6232C397.283 57.5951 396.945 57.4987 396.66 57.3338C396.375 57.169 396.142 56.9557 395.96 56.694C395.779 56.4323 395.648 56.1301 395.568 55.7875C395.489 55.437 395.464 55.0662 395.492 54.6752ZM402.419 51.0341C402.162 51.0317 401.814 51.0227 401.374 51.0071C400.934 50.9915 400.483 50.9671 400.02 50.9338C399.756 50.9149 399.485 50.8954 399.206 50.8753C398.919 50.8467 398.629 50.8178 398.334 50.7886C397.745 50.7302 397.284 50.661 396.953 50.5811C396.623 50.4931 396.38 50.3554 396.225 50.1678C396.071 49.9722 395.985 49.7094 395.969 49.3794C395.952 49.0494 395.964 48.6131 396.003 48.0705C396.003 48.0625 396.009 47.9787 396.021 47.8191C396.033 47.6515 396.051 47.4523 396.076 47.2215C396.092 46.9901 396.114 46.751 396.139 46.5042C396.166 46.2495 396.189 46.0386 396.209 45.8716C396.238 45.6972 396.272 45.5593 396.311 45.4578C396.343 45.3478 396.385 45.2666 396.437 45.2142C396.481 45.1612 396.535 45.129 396.6 45.1177C396.657 45.1057 396.721 45.1023 396.793 45.1075C396.977 45.1207 397.109 45.1823 397.189 45.2924C397.261 45.4018 397.298 45.617 397.299 45.9379C397.303 46.0986 397.299 46.3349 397.284 46.6467C397.262 46.9499 397.24 47.2611 397.217 47.5803C397.194 47.8994 397.177 48.187 397.167 48.4429C397.149 48.6982 397.137 48.8578 397.133 48.9217C397.126 49.1297 397.163 49.2808 397.244 49.3748C397.319 49.4604 397.511 49.5143 397.822 49.5367C397.894 49.5418 398.07 49.5505 398.35 49.5626C398.622 49.5661 399.006 49.5857 399.501 49.6212L399.572 48.6278C399.602 48.2049 399.635 47.8623 399.67 47.6002C399.697 47.3294 399.736 47.1237 399.786 46.9829C399.837 46.8342 399.909 46.735 400 46.6855C400.092 46.636 400.21 46.6163 400.353 46.6267C400.425 46.6318 400.493 46.6447 400.555 46.6652C400.611 46.6772 400.66 46.7129 400.704 46.7722C400.74 46.8309 400.77 46.9133 400.794 47.0193C400.811 47.1247 400.82 47.2738 400.822 47.4665C400.822 47.699 400.818 47.9193 400.811 48.1273C400.797 48.3268 400.782 48.5263 400.768 48.7258L400.696 49.7312C400.815 49.7398 400.959 49.7501 401.127 49.7622C401.294 49.7742 401.466 49.7865 401.641 49.7992C401.817 49.8118 401.988 49.8241 402.156 49.8362C402.324 49.8402 402.46 49.842 402.565 49.8415C402.693 49.8427 402.802 49.8345 402.891 49.8168C402.981 49.7912 403.057 49.7445 403.118 49.6767C403.18 49.6009 403.227 49.4921 403.262 49.3502C403.297 49.2003 403.323 49.0017 403.341 48.7543L403.526 46.1809C403.546 45.9017 403.61 45.7298 403.719 45.6655C403.828 45.6011 403.97 45.5753 404.146 45.5879C404.289 45.5982 404.399 45.6381 404.474 45.7077C404.541 45.7767 404.582 45.936 404.596 46.1857C404.619 46.4279 404.617 46.7927 404.59 47.2801C404.563 47.7594 404.519 48.422 404.459 49.2678C404.433 49.6269 404.38 49.9198 404.299 50.1466C404.219 50.3734 404.098 50.5532 403.936 50.6859C403.774 50.8187 403.57 50.9123 403.326 50.9669C403.074 51.013 402.772 51.0354 402.419 51.0341ZM405.038 41.714C405.003 42.1928 404.875 42.6367 404.653 43.0459C404.432 43.447 404.131 43.7903 403.749 44.0757C403.36 44.3605 402.895 44.5758 402.355 44.7214C401.816 44.8591 401.211 44.9039 400.541 44.8557C399.911 44.8104 399.337 44.693 398.822 44.5035C398.307 44.3061 397.868 44.042 397.507 43.7113C397.147 43.3725 396.879 42.9683 396.704 42.4986C396.521 42.0282 396.451 41.4939 396.494 40.8954C396.529 40.4087 396.65 39.9522 396.858 39.5259C397.065 39.0997 397.356 38.7356 397.73 38.4337C398.105 38.1238 398.563 37.892 399.104 37.7383C399.644 37.5847 400.265 37.5331 400.967 37.5836C401.55 37.6254 402.099 37.7451 402.614 37.9425C403.13 38.132 403.576 38.4007 403.952 38.7485C404.32 39.0878 404.607 39.5055 404.812 40.0014C405.009 40.4968 405.084 41.0677 405.038 41.714ZM403.914 41.6092C403.946 41.1703 403.886 40.781 403.734 40.4412C403.574 40.1009 403.354 39.8124 403.074 39.5757C402.794 39.3391 402.467 39.1551 402.091 39.0238C401.708 38.892 401.312 38.8114 400.905 38.7822C400.411 38.7466 399.967 38.7829 399.574 38.891C399.174 38.9906 398.834 39.1426 398.555 39.3471C398.275 39.5516 398.057 39.7966 397.9 40.0821C397.736 40.367 397.641 40.677 397.617 41.0122C397.588 41.4111 397.647 41.7683 397.793 42.0835C397.939 42.3908 398.148 42.6585 398.421 42.8866C398.694 43.1068 399.022 43.2827 399.405 43.4146C399.781 43.5458 400.188 43.6272 400.627 43.6588C401.098 43.6926 401.533 43.6638 401.933 43.5722C402.324 43.48 402.663 43.3439 402.948 43.164C403.235 42.976 403.464 42.7478 403.635 42.4794C403.799 42.2105 403.892 41.9204 403.914 41.6092Z" fill="black"/>
</g>
<g clip-path="url(#clip1_14040_1464)">
<rect x="408" y="74.458" width="87" height="20" rx="10" transform="rotate(-58.8528 408 74.458)" fill="#FDD1B7"/>
<path d="M419.79 65.6367C419.905 65.445 420.055 65.2362 420.238 65.0104C420.419 64.7737 420.616 64.5705 420.831 64.4011C421.038 64.2275 421.253 64.1047 421.474 64.0327C421.688 63.9566 421.888 63.9744 422.073 64.0861C422.182 64.1523 422.256 64.239 422.294 64.3461C422.332 64.4532 422.31 64.5753 422.227 64.7122C422.165 64.8149 422.08 64.9086 421.973 64.9934C421.87 65.0712 421.756 65.1662 421.633 65.2783C421.506 65.3794 421.368 65.5066 421.22 65.6598C421.075 65.8061 420.933 65.9957 420.792 66.2285C420.519 66.6804 420.398 67.0655 420.43 67.3839C420.459 67.6913 420.614 67.9299 420.895 68.0995C421.087 68.2154 421.277 68.2647 421.465 68.2475C421.653 68.2302 421.842 68.1718 422.033 68.0723C422.222 67.9618 422.407 67.8259 422.588 67.6645C422.774 67.4964 422.958 67.3227 423.141 67.1436C423.348 66.9412 423.566 66.7505 423.796 66.5715C424.029 66.3857 424.274 66.2437 424.53 66.1458C424.785 66.0478 425.055 66.0103 425.341 66.0331C425.63 66.0492 425.943 66.1585 426.278 66.3613C426.627 66.5723 426.903 66.8277 427.105 67.1275C427.3 67.4231 427.429 67.7438 427.491 68.0898C427.546 68.4316 427.533 68.7931 427.453 69.1742C427.365 69.5512 427.209 69.9246 426.986 70.2943C426.862 70.4997 426.696 70.727 426.49 70.976C426.29 71.2292 426.071 71.4521 425.833 71.6448C425.588 71.8334 425.339 71.9677 425.085 72.0478C424.824 72.1238 424.58 72.0935 424.355 71.957C424.218 71.8742 424.129 71.7738 424.088 71.6557C424.051 71.5307 424.076 71.3963 424.163 71.2525C424.234 71.1362 424.316 71.0548 424.409 71.0084C424.496 70.9579 424.583 70.9219 424.671 70.9002C424.973 70.8024 425.233 70.642 425.452 70.4191C425.671 70.1961 425.863 69.9477 426.029 69.6739C426.124 69.5164 426.213 69.3459 426.296 69.1623C426.376 68.9677 426.422 68.7758 426.434 68.5865C426.445 68.3972 426.411 68.2132 426.332 68.0346C426.247 67.8519 426.084 67.6881 425.844 67.5433C425.625 67.4108 425.42 67.3478 425.23 67.354C425.036 67.3493 424.848 67.3898 424.665 67.4757C424.482 67.5615 424.3 67.6851 424.119 67.8464C423.941 68.0009 423.753 68.1725 423.555 68.3612C423.334 68.5731 423.107 68.7775 422.876 68.9743C422.645 69.1712 422.403 69.3241 422.15 69.433C421.891 69.5378 421.617 69.5877 421.331 69.5827C421.041 69.5667 420.729 69.4573 420.393 69.2545C420.058 69.0518 419.801 68.8122 419.622 68.5359C419.443 68.2595 419.332 67.9635 419.289 67.6478C419.246 67.3321 419.267 67.0036 419.352 66.6622C419.441 66.314 419.587 65.9722 419.79 65.6367ZM425.371 61.0176C425.607 60.6273 425.88 60.3154 426.189 60.0818C426.492 59.844 426.817 59.6852 427.164 59.6054C427.516 59.5187 427.884 59.5123 428.27 59.5863C428.655 59.6602 429.043 59.8151 429.433 60.051C429.864 60.3117 430.21 60.6139 430.469 60.9578C430.733 61.2947 430.912 61.6555 431.007 62.0399C431.106 62.4175 431.121 62.81 431.053 63.2172C430.988 63.6177 430.84 64.0096 430.609 64.393C430.356 64.8106 430.061 65.1369 429.722 65.3718C429.388 65.5999 429.032 65.749 428.653 65.8191C428.278 65.8824 427.897 65.8716 427.509 65.7866C427.121 65.7017 426.749 65.5516 426.393 65.3365C426.003 65.1006 425.684 64.8238 425.436 64.5061C425.186 64.1774 425.015 63.8263 424.923 63.4528C424.828 63.0683 424.817 62.6691 424.89 62.2549C424.963 61.8408 425.123 61.4284 425.371 61.0176ZM429.688 63.7809C429.858 63.5002 429.955 63.2316 429.979 62.9751C429.996 62.7145 429.96 62.4729 429.87 62.2503C429.785 62.0209 429.656 61.8168 429.483 61.6379C429.308 61.448 429.108 61.2847 428.882 61.1482C428.649 61.0075 428.415 60.908 428.179 60.8496C427.941 60.7802 427.709 60.7616 427.484 60.7938C427.263 60.8192 427.053 60.9029 426.855 61.045C426.654 61.176 426.475 61.3717 426.318 61.6318C426.157 61.8989 426.061 62.1585 426.03 62.4109C425.999 62.6632 426.021 62.9055 426.095 63.1376C426.167 63.3587 426.289 63.5676 426.46 63.7644C426.63 63.9611 426.839 64.134 427.086 64.2829C427.585 64.585 428.069 64.7045 428.537 64.6416C429.003 64.5676 429.386 64.2807 429.688 63.7809ZM428.886 55.1325C429.006 54.9339 429.143 54.7457 429.297 54.5679C429.456 54.3831 429.615 54.2272 429.776 54.1002C429.937 53.9731 430.093 53.8851 430.244 53.8362C430.395 53.7873 430.529 53.798 430.646 53.8683C430.947 54.0504 430.994 54.3126 430.787 54.6549C430.738 54.7371 430.68 54.8096 430.614 54.8725C430.545 54.9245 430.471 54.9921 430.393 55.0756C430.307 55.1549 430.211 55.2602 430.104 55.3916C429.989 55.5188 429.868 55.6885 429.74 55.9008C429.467 56.3527 429.41 56.795 429.569 57.2277C429.728 57.6603 430.054 58.0257 430.547 58.3236C431.088 58.6505 431.597 58.79 432.075 58.7421C432.556 58.6874 432.936 58.4307 433.213 57.972C433.387 57.6844 433.504 57.4371 433.563 57.2302C433.623 57.0232 433.655 56.8463 433.66 56.6995C433.668 56.5459 433.67 56.4203 433.663 56.3229C433.661 56.2186 433.686 56.122 433.74 56.033C433.815 55.9097 433.9 55.8304 433.996 55.7951C434.089 55.7487 434.215 55.7731 434.372 55.8683C434.537 55.9676 434.641 56.1195 434.686 56.3241C434.735 56.5218 434.742 56.7414 434.708 56.9827C434.675 57.2241 434.61 57.4702 434.515 57.7209C434.423 57.9649 434.322 58.1793 434.21 58.3641C433.709 59.1926 433.087 59.7044 432.343 59.8996C431.598 60.0948 430.805 59.9379 429.963 59.4289C429.6 59.2096 429.291 58.9479 429.035 58.6439C428.777 58.3289 428.593 57.9839 428.483 57.609C428.373 57.2341 428.346 56.8389 428.4 56.4234C428.459 56.001 428.621 55.5707 428.886 55.1325ZM435.201 55.0779C434.939 54.9385 434.643 54.7784 434.313 54.5976C433.98 54.4058 433.619 54.192 433.229 53.9561C432.742 53.6624 432.33 53.4086 431.992 53.1948C431.647 52.977 431.373 52.7881 431.171 52.6283C430.965 52.4575 430.832 52.3069 430.771 52.1763C430.703 52.0417 430.706 51.9127 430.78 51.7895C430.851 51.6731 430.954 51.5952 431.09 51.5559C431.226 51.5165 431.435 51.5727 431.717 51.7246C432.461 52.118 433.168 52.5174 433.839 52.9229C434.181 53.1298 434.499 53.3312 434.792 53.5269C435.078 53.7185 435.395 53.9288 435.743 54.1577C435.903 54.2638 436.019 54.3575 436.092 54.4387C436.168 54.513 436.218 54.5852 436.241 54.6552C436.264 54.7253 436.263 54.7897 436.237 54.8487C436.221 54.9049 436.193 54.9672 436.152 55.0357C436.077 55.1589 435.974 55.2368 435.842 55.2693C435.703 55.2977 435.49 55.2339 435.201 55.0779ZM428.928 50.6558C429.023 50.4983 429.171 50.3917 429.373 50.3361C429.579 50.2737 429.768 50.2942 429.939 50.3976C430.103 50.4969 430.206 50.6523 430.246 50.8637C430.28 51.071 430.245 51.2602 430.141 51.4314C430.055 51.5752 429.914 51.6769 429.719 51.7367C429.521 51.7854 429.333 51.756 429.155 51.6484C428.991 51.5491 428.887 51.4027 428.846 51.2091C428.801 51.0045 428.828 50.8201 428.928 50.6558ZM439.78 49.0319C439.714 49.1415 439.643 49.2201 439.567 49.2679C439.489 49.3047 439.409 49.3216 439.326 49.3186C439.244 49.3156 439.158 49.2961 439.067 49.2601C438.97 49.22 438.871 49.1744 438.771 49.1234C438.88 49.4228 438.924 49.7529 438.902 50.1137C438.884 50.4676 438.749 50.8534 438.497 51.271C438.336 51.538 438.132 51.7892 437.887 52.0244C437.64 52.2486 437.352 52.4157 437.023 52.5258C436.688 52.6317 436.313 52.6573 435.897 52.6024C435.482 52.5476 435.024 52.3692 434.524 52.0671C434.134 51.8312 433.797 51.5619 433.512 51.2592C433.228 50.9564 433.017 50.6326 432.88 50.2878C432.739 49.932 432.683 49.5614 432.71 49.176C432.738 48.7905 432.871 48.3993 433.111 48.0021C433.322 47.653 433.576 47.3807 433.871 47.1855C434.16 46.9861 434.514 46.8638 434.934 46.8185C434.852 46.7688 434.772 46.7157 434.694 46.6592C434.609 46.5986 434.541 46.5339 434.489 46.4651C434.434 46.3854 434.407 46.2988 434.407 46.2055C434.401 46.1081 434.433 46.0012 434.503 45.8848C434.565 45.7821 434.664 45.7111 434.8 45.6717C434.936 45.6324 435.145 45.6886 435.427 45.8404C435.803 46.0392 436.136 46.2221 436.428 46.389C436.724 46.5491 437.026 46.7223 437.334 46.9085C437.71 47.136 438.054 47.3484 438.365 47.5456C438.676 47.7428 439.001 47.9627 439.34 48.2053C439.489 48.3141 439.604 48.4112 439.683 48.4965C439.76 48.5709 439.811 48.6396 439.839 48.7028C439.859 48.7619 439.862 48.8195 439.846 48.8757C439.831 48.9319 439.809 48.984 439.78 49.0319ZM436.836 48.01C436.48 47.7948 436.156 47.6737 435.864 47.6467C435.576 47.6128 435.321 47.6408 435.098 47.7307C434.873 47.8095 434.68 47.9269 434.521 48.0828C434.361 48.2387 434.234 48.3954 434.139 48.5529C433.99 48.7993 433.906 49.0385 433.887 49.2703C433.873 49.4953 433.911 49.7101 434.002 49.9148C434.087 50.1154 434.219 50.3072 434.398 50.4903C434.574 50.6623 434.786 50.8228 435.032 50.9718C435.635 51.3359 436.158 51.4748 436.603 51.3884C437.052 51.2952 437.413 51.0226 437.686 50.5708C437.848 50.3037 437.94 50.0509 437.962 49.8122C437.982 49.5626 437.949 49.332 437.862 49.1204C437.779 48.902 437.648 48.7013 437.468 48.5182C437.287 48.3242 437.076 48.1548 436.836 48.01ZM440.194 46.909C439.943 46.7668 439.651 46.5999 439.319 46.4081C438.986 46.2163 438.626 46.008 438.238 45.7831C437.855 45.5514 437.449 45.3107 437.02 45.061C436.596 44.8045 436.161 44.5417 435.716 44.2727C435.23 43.9789 434.814 43.7231 434.469 43.5052C434.124 43.2873 433.847 43.0964 433.637 42.9325C433.432 42.7617 433.299 42.6111 433.237 42.4805C433.169 42.3458 433.172 42.2169 433.247 42.0936C433.317 41.9772 433.417 41.8973 433.546 41.8538C433.675 41.8103 433.881 41.8645 434.163 42.0163C434.673 42.2869 435.196 42.5801 435.735 42.896C436.266 43.2078 436.788 43.5188 437.302 43.8292C437.61 44.0154 437.908 44.1954 438.195 44.3692C438.476 44.5388 438.755 44.7119 439.031 44.8884C439.301 45.0608 439.578 45.2373 439.861 45.4179C440.144 45.5985 440.436 45.7888 440.736 45.9887C440.896 46.0949 441.012 46.1885 441.085 46.2697C441.161 46.344 441.211 46.4162 441.234 46.4863C441.257 46.5563 441.256 46.6208 441.23 46.6797C441.214 46.7359 441.186 46.7983 441.145 46.8667C441.07 46.99 440.967 47.0678 440.835 47.1003C440.697 47.1287 440.483 47.0649 440.194 46.909ZM443.349 39.0903C442.467 38.9873 441.63 38.8646 440.837 38.7221C440.042 38.5686 439.339 38.4244 438.729 38.2893C439.483 38.9599 440.258 39.6107 441.054 40.2416C441.855 40.8657 442.599 41.4978 443.287 42.138C443.441 42.2866 443.515 42.4344 443.51 42.5811C443.499 42.7238 443.47 42.8328 443.425 42.9081C443.35 43.0313 443.253 43.1079 443.132 43.1377C443.015 43.1606 442.899 43.1369 442.782 43.0666C442.625 42.9714 442.396 42.8094 442.094 42.5807C441.791 42.341 441.45 42.0697 441.072 41.7666C440.699 41.4567 440.309 41.1276 439.902 40.7791C439.496 40.4307 439.107 40.0927 438.735 39.7649C438.36 39.4262 438.022 39.1192 437.721 38.8438C437.424 38.5616 437.2 38.3373 437.048 38.1708C436.787 37.8914 436.739 37.6148 436.905 37.3409C437.004 37.1766 437.171 37.0859 437.405 37.0688C437.633 37.0476 437.954 37.0733 438.368 37.146C438.78 37.2077 439.295 37.2992 439.913 37.4205C440.536 37.535 441.28 37.6485 442.147 37.7611C441.64 37.0529 441.191 36.4587 440.798 35.9787C440.404 35.4876 440.079 35.0811 439.825 34.7593C439.568 34.4264 439.396 34.1542 439.309 33.9426C439.215 33.7269 439.22 33.5335 439.323 33.3623C439.418 33.2049 439.532 33.1099 439.664 33.0774C439.789 33.0407 439.942 33.0494 440.124 33.1035C440.345 33.1715 440.647 33.2747 441.031 33.4131C441.408 33.5474 441.828 33.7031 442.291 33.8802C442.752 34.0463 443.23 34.2282 443.728 34.426C444.225 34.6238 444.698 34.816 445.146 35.0027C445.594 35.1893 445.996 35.3669 446.352 35.5354C446.706 35.693 446.972 35.8255 447.15 35.9331C447.259 35.9993 447.325 36.0908 447.348 36.2075C447.364 36.32 447.337 36.4345 447.267 36.5509C447.221 36.6262 447.138 36.7021 447.017 36.7785C446.889 36.8509 446.724 36.8538 446.521 36.7872C446.081 36.6335 445.632 36.4647 445.173 36.2808C444.718 36.09 444.26 35.8971 443.798 35.7022C443.333 35.4963 442.872 35.2924 442.415 35.0907C441.95 34.8847 441.487 34.6843 441.026 34.4894C441.246 34.7439 441.485 35.0287 441.743 35.3437C442.001 35.6587 442.259 35.9826 442.516 36.3155C442.766 36.6442 443.01 36.9743 443.249 37.3057C443.488 37.6371 443.699 37.9465 443.88 38.2338C443.94 38.3355 443.97 38.4419 443.968 38.5531C443.963 38.6532 443.936 38.7444 443.887 38.8265C443.833 38.9155 443.761 38.9887 443.67 39.046C443.576 39.0924 443.469 39.1071 443.349 39.0903ZM447.618 31.7006C447.474 31.9403 447.303 32.1832 447.108 32.4296C446.909 32.6649 446.656 32.8994 446.346 33.133C446.801 33.3238 447.219 33.343 447.601 33.1906C447.987 33.0313 448.342 32.6846 448.664 32.1506C448.78 31.9588 448.874 31.7815 448.944 31.6184C449.012 31.4444 449.067 31.2909 449.11 31.158C449.146 31.0209 449.181 30.9016 449.214 30.8002C449.241 30.6947 449.277 30.6042 449.322 30.5289C449.38 30.433 449.467 30.3592 449.582 30.3075C449.691 30.2516 449.813 30.265 449.95 30.3478C450.121 30.4512 450.218 30.6079 450.241 30.8179C450.268 31.021 450.253 31.246 450.198 31.4928C450.139 31.7286 450.052 31.9657 449.936 32.204C449.827 32.4465 449.721 32.6533 449.617 32.8245C449.373 33.2285 449.093 33.5685 448.776 33.8446C448.464 34.1139 448.124 34.3056 447.756 34.4197C447.381 34.5296 446.988 34.5537 446.576 34.492C446.165 34.4304 445.74 34.2671 445.302 34.0023C444.877 33.7457 444.54 33.4531 444.29 33.1244C444.044 32.7888 443.879 32.4364 443.793 32.067C443.708 31.6977 443.703 31.3204 443.777 30.9351C443.855 30.543 444.005 30.162 444.229 29.7923C444.403 29.5047 444.608 29.2502 444.845 29.0287C445.085 28.8003 445.343 28.629 445.618 28.5146C445.897 28.3934 446.19 28.3415 446.497 28.359C446.802 28.3654 447.108 28.4618 447.416 28.648C447.69 28.8135 447.892 29.0055 448.021 29.2241C448.151 29.4426 448.216 29.683 448.217 29.945C448.221 30.2002 448.17 30.4779 448.064 30.778C447.961 31.0713 447.813 31.3788 447.618 31.7006ZM445.192 30.3325C445.081 30.5174 444.997 30.7099 444.941 30.91C444.879 31.106 444.856 31.3069 444.872 31.5128C444.885 31.7076 444.944 31.9027 445.051 32.0978C445.15 32.2888 445.31 32.4739 445.529 32.653C445.802 32.4631 446.037 32.2594 446.234 32.0419C446.424 31.8203 446.602 31.5725 446.768 31.2986C447.012 30.8947 447.144 30.5679 447.164 30.3183C447.181 30.0576 447.06 29.8487 446.8 29.6915C446.56 29.5466 446.295 29.5129 446.006 29.5901C445.72 29.6606 445.449 29.908 445.192 30.3325ZM453.964 25.4239C453.881 25.5609 453.756 25.6442 453.588 25.6738C453.425 25.6966 453.261 25.6817 453.097 25.629C453.122 25.7567 453.14 25.8981 453.149 26.0531C453.162 26.2013 453.161 26.3646 453.147 26.5429C453.126 26.7171 453.086 26.8988 453.028 27.0879C452.97 27.2771 452.883 27.4675 452.767 27.6592C452.626 27.892 452.431 28.1294 452.182 28.3714C451.93 28.6025 451.632 28.7868 451.287 28.9242C450.94 29.0507 450.547 29.0982 450.108 29.0666C449.673 29.0281 449.202 28.8558 448.696 28.5496C448.264 28.2889 447.92 27.9922 447.663 27.6593C447.406 27.3265 447.235 26.9754 447.15 26.606C447.062 26.2257 447.057 25.8395 447.135 25.4473C447.211 25.0442 447.364 24.6509 447.596 24.2675C447.794 23.9389 447.989 23.7015 448.181 23.5553C448.372 23.4091 448.552 23.3122 448.721 23.2648C448.536 23.153 448.327 23.0268 448.094 22.8861C447.855 22.7413 447.625 22.6027 447.406 22.4703C447.184 22.3269 446.981 22.1993 446.796 22.0876C446.615 21.969 446.479 21.8774 446.387 21.8126C446.163 21.6582 446.03 21.5219 445.989 21.4038C445.942 21.2816 445.97 21.1349 446.073 20.9637C446.181 20.7857 446.298 20.6927 446.424 20.6849C446.548 20.6661 446.72 20.714 446.94 20.8286C447.033 20.8755 447.155 20.9445 447.306 21.0355C447.46 21.1197 447.627 21.2156 447.805 21.3232C447.983 21.4308 448.164 21.5404 448.349 21.6522C448.531 21.7529 448.698 21.8488 448.848 21.9398C448.992 22.0267 449.112 22.0991 449.208 22.1571C449.304 22.215 449.352 22.244 449.352 22.244C450.05 22.666 450.689 23.0618 451.27 23.4314C451.855 23.7941 452.322 24.081 452.671 24.292C452.754 24.3238 452.843 24.3399 452.936 24.3402C453.034 24.3336 453.131 24.3271 453.228 24.3205C453.33 24.3072 453.431 24.3027 453.531 24.3071C453.631 24.3115 453.722 24.3386 453.804 24.3882C453.9 24.4462 453.971 24.5219 454.018 24.6153C454.057 24.7046 454.078 24.8014 454.081 24.9057C454.087 25.0031 454.079 25.1012 454.057 25.1999C454.032 25.2876 454.001 25.3623 453.964 25.4239ZM451.862 26.8599C452.119 26.4354 452.188 26.0336 452.072 25.6545C451.955 25.2755 451.605 24.9101 451.024 24.5584C449.908 23.8839 449.083 23.9883 448.549 24.8715C448.425 25.0769 448.335 25.2941 448.281 25.523C448.227 25.752 448.219 25.9811 448.258 26.2103C448.302 26.4327 448.394 26.6519 448.534 26.8677C448.679 27.0767 448.888 27.264 449.162 27.4295C449.388 27.5661 449.622 27.6656 449.865 27.7281C450.112 27.7838 450.357 27.7962 450.6 27.7654C450.84 27.7237 451.068 27.6325 451.284 27.4919C451.504 27.3444 451.696 27.1337 451.862 26.8599ZM454.306 23.4653C454.045 23.3259 453.749 23.1658 453.419 22.985C453.086 22.7932 452.724 22.5794 452.334 22.3435C451.848 22.0497 451.436 21.796 451.098 21.5822C450.753 21.3643 450.479 21.1755 450.276 21.0157C450.071 20.8449 449.938 20.6943 449.876 20.5637C449.808 20.429 449.811 20.3001 449.886 20.1768C449.956 20.0605 450.059 19.9826 450.195 19.9432C450.331 19.9039 450.54 19.9601 450.822 20.1119C451.566 20.5053 452.274 20.9048 452.944 21.3103C453.287 21.5172 453.604 21.7185 453.897 21.9143C454.184 22.1059 454.501 22.3162 454.848 22.545C455.008 22.6512 455.125 22.7448 455.197 22.826C455.274 22.9004 455.324 22.9726 455.347 23.0426C455.37 23.1126 455.368 23.1771 455.342 23.236C455.327 23.2922 455.298 23.3546 455.257 23.423C455.183 23.5463 455.079 23.6242 454.948 23.6567C454.809 23.685 454.595 23.6212 454.306 23.4653ZM448.033 19.0431C448.128 18.8857 448.277 18.7791 448.479 18.7235C448.685 18.6611 448.873 18.6816 449.044 18.785C449.209 18.8843 449.311 19.0397 449.352 19.2511C449.385 19.4584 449.35 19.6476 449.247 19.8188C449.16 19.9625 449.019 20.0643 448.824 20.1241C448.626 20.1728 448.438 20.1434 448.26 20.0358C448.096 19.9365 447.993 19.7901 447.951 19.5965C447.906 19.3919 447.934 19.2075 448.033 19.0431ZM458.886 17.4193C458.819 17.5288 458.748 17.6075 458.673 17.6553C458.594 17.6921 458.514 17.709 458.432 17.706C458.35 17.7029 458.263 17.6835 458.173 17.6475C458.075 17.6074 457.977 17.5618 457.877 17.5107C457.986 17.8102 458.029 18.1403 458.007 18.501C457.99 18.855 457.855 19.2407 457.602 19.6584C457.441 19.9254 457.238 20.1765 456.993 20.4117C456.745 20.6359 456.457 20.8031 456.129 20.9132C455.794 21.0191 455.419 21.0447 455.003 20.9898C454.587 20.935 454.13 20.7565 453.63 20.4545C453.24 20.2186 452.902 19.9493 452.618 19.6465C452.334 19.3438 452.123 19.02 451.985 18.6752C451.845 18.3194 451.789 17.9488 451.816 17.5633C451.843 17.1779 451.977 16.7866 452.217 16.3895C452.428 16.0403 452.681 15.7681 452.977 15.5729C453.266 15.3735 453.62 15.2511 454.04 15.2058C453.958 15.1562 453.878 15.1031 453.8 15.0466C453.715 14.986 453.646 14.9213 453.594 14.8525C453.54 14.7727 453.513 14.6862 453.513 14.5929C453.506 14.4955 453.538 14.3886 453.609 14.2722C453.671 14.1695 453.77 14.0985 453.906 14.0591C454.042 14.0197 454.251 14.076 454.533 14.2278C454.908 14.4266 455.242 14.6094 455.533 14.7764C455.829 14.9365 456.131 15.1096 456.439 15.2958C456.816 15.5234 457.159 15.7358 457.47 15.933C457.781 16.1302 458.106 16.3501 458.446 16.5926C458.595 16.7015 458.709 16.7986 458.788 16.8839C458.865 16.9582 458.917 17.027 458.944 17.0902C458.965 17.1493 458.967 17.2069 458.952 17.2631C458.937 17.3193 458.914 17.3714 458.886 17.4193ZM455.942 16.3973C455.586 16.1822 455.262 16.0611 454.969 16.0341C454.681 16.0002 454.426 16.0282 454.204 16.118C453.978 16.1969 453.786 16.3143 453.626 16.4702C453.467 16.6261 453.339 16.7828 453.244 16.9402C453.095 17.1867 453.011 17.4259 452.993 17.6577C452.978 17.8826 453.017 18.0975 453.108 18.3022C453.192 18.5028 453.324 18.6946 453.503 18.8776C453.68 19.0497 453.891 19.2102 454.138 19.3592C454.74 19.7233 455.264 19.8622 455.709 19.7758C456.158 19.6826 456.519 19.41 456.792 18.9581C456.953 18.6911 457.045 18.4383 457.068 18.1996C457.088 17.95 457.054 17.7194 456.967 17.5078C456.884 17.2894 456.753 17.0887 456.574 16.9056C456.392 16.7116 456.181 16.5422 455.942 16.3973Z" fill="black"/>
</g>
<g clip-path="url(#clip2_14040_1464)">
<rect x="424" y="86.8818" width="63" height="20" rx="10" transform="rotate(-39.2749 424 86.8818)" fill="#D1FFA3"/>
<path d="M438.486 82.146C438.69 81.9788 438.91 81.8303 439.144 81.7003C439.38 81.5591 439.612 81.4573 439.84 81.3949C440.063 81.3262 440.27 81.3015 440.462 81.3207C440.654 81.3286 440.806 81.4007 440.917 81.537C441.034 81.6794 441.085 81.8182 441.072 81.9533C441.058 82.0883 440.996 82.2015 440.884 82.2926C440.779 82.3787 440.673 82.4392 440.568 82.4741C440.457 82.5028 440.331 82.5385 440.19 82.5812C440.056 82.6189 439.905 82.6805 439.737 82.766C439.564 82.8453 439.36 82.9812 439.125 83.1737C438.889 83.3661 438.714 83.6129 438.598 83.914C438.484 84.2038 438.435 84.523 438.451 84.8714C438.469 85.2086 438.55 85.5607 438.695 85.9277C438.84 86.2947 439.052 86.6486 439.33 86.9892C439.675 87.4103 440.024 87.7295 440.377 87.9469C440.737 88.1592 441.084 88.2935 441.42 88.3499C441.75 88.4001 442.064 88.3861 442.362 88.3079C442.661 88.2185 442.922 88.0826 443.145 87.9003C443.411 87.6825 443.611 87.4724 443.745 87.2698C443.879 87.0672 443.98 86.8812 444.049 86.7117C444.123 86.5373 444.184 86.3842 444.231 86.2525C444.278 86.1208 444.345 86.0195 444.432 85.9486C444.537 85.8625 444.646 85.8251 444.759 85.8364C444.866 85.8415 444.981 85.9183 445.102 86.067C445.204 86.1908 445.258 86.3583 445.265 86.5694C445.274 86.7692 445.228 86.9977 445.128 87.2549C445.03 87.5009 444.881 87.7617 444.683 88.0375C444.48 88.3071 444.22 88.571 443.904 88.8293C443.558 89.1129 443.155 89.3283 442.697 89.4757C442.245 89.618 441.774 89.6674 441.284 89.6239C440.794 89.5692 440.302 89.409 439.805 89.1431C439.304 88.8711 438.833 88.4658 438.392 87.927C437.952 87.3882 437.633 86.8475 437.438 86.3048C437.248 85.7571 437.164 85.2313 437.186 84.7275C437.21 84.2125 437.331 83.7358 437.552 83.2974C437.778 82.8539 438.089 82.4701 438.486 82.146ZM445.025 79.9138C445.378 79.6251 445.74 79.4226 446.11 79.3062C446.474 79.1836 446.834 79.1428 447.188 79.184C447.548 79.2201 447.897 79.3376 448.236 79.5364C448.574 79.7352 448.887 80.011 449.176 80.364C449.495 80.7542 449.719 81.1547 449.849 81.5657C449.984 81.9715 450.032 82.3715 449.993 82.7655C449.959 83.1544 449.842 83.5293 449.641 83.89C449.446 84.2457 449.175 84.5654 448.829 84.849C448.451 85.1579 448.063 85.3663 447.666 85.4743C447.275 85.5772 446.889 85.5982 446.508 85.5373C446.134 85.4714 445.778 85.3334 445.441 85.1234C445.104 84.9133 444.804 84.6473 444.541 84.3252C444.252 83.9722 444.044 83.6046 443.918 83.2224C443.792 82.8289 443.749 82.4408 443.787 82.0581C443.827 81.6641 443.95 81.2841 444.157 80.9183C444.364 80.5525 444.654 80.2177 445.025 79.9138ZM448.167 83.9639C448.421 83.7563 448.602 83.5357 448.711 83.3021C448.814 83.0624 448.861 82.8226 448.851 82.5828C448.847 82.338 448.794 82.1024 448.692 81.8761C448.591 81.6385 448.456 81.4176 448.289 81.2132C448.117 81.0026 447.93 80.8303 447.727 80.6963C447.526 80.5511 447.313 80.4559 447.091 80.4108C446.874 80.3606 446.648 80.3693 446.414 80.4368C446.181 80.493 445.947 80.6174 445.712 80.8098C445.47 81.0073 445.292 81.2198 445.179 81.4471C445.065 81.6745 445.004 81.9101 444.997 82.1538C444.991 82.3862 445.035 82.6238 445.13 82.8664C445.225 83.109 445.364 83.3418 445.546 83.5648C445.916 84.0169 446.332 84.2916 446.794 84.3891C447.257 84.4754 447.715 84.3336 448.167 83.9639ZM450.921 76.348C450.692 76.5354 450.515 76.7422 450.39 76.9684C450.271 77.1896 450.158 77.4682 450.05 77.8042C450.157 77.9343 450.314 78.1263 450.521 78.3802C450.724 78.6279 450.944 78.9029 451.181 79.2052C451.412 79.5014 451.642 79.7944 451.869 80.0843C452.095 80.3743 452.278 80.6228 452.416 80.83C452.505 80.964 452.571 81.0757 452.613 81.1653C452.656 81.2435 452.678 81.3139 452.677 81.3764C452.683 81.4338 452.666 81.4889 452.626 81.5418C452.588 81.5835 452.532 81.6347 452.457 81.6954C452.383 81.7562 452.319 81.8038 452.264 81.8381C452.211 81.8612 452.156 81.8699 452.099 81.8642C452.038 81.8524 451.97 81.82 451.896 81.7671C451.822 81.7141 451.73 81.6339 451.622 81.5264C451.518 81.425 451.384 81.2865 451.22 81.1109C451.062 80.9301 450.891 80.7339 450.708 80.5222C450.519 80.3044 450.33 80.0865 450.142 79.8686C449.955 79.6395 449.782 79.4289 449.625 79.2369C449.367 78.9211 449.16 78.6615 449.004 78.4583C448.855 78.25 448.729 78.0583 448.627 77.8832C448.451 77.5927 448.367 77.3881 448.373 77.2693C448.379 77.1506 448.435 77.0482 448.54 76.9621C448.695 76.8354 448.845 76.7851 448.99 76.811C449.142 76.8319 449.308 76.9338 449.488 77.1168C449.555 76.7313 449.671 76.3733 449.835 76.0429C450.005 75.7075 450.229 75.4258 450.508 75.1979C450.774 74.9802 451.066 74.8446 451.384 74.7912C451.709 74.7327 452.056 74.7846 452.426 74.9468C452.65 75.0431 452.867 75.1757 453.077 75.3447C453.283 75.5074 453.486 75.6926 453.687 75.9004C453.774 75.9944 453.861 76.0884 453.948 76.1824C454.03 76.2703 454.117 76.3699 454.208 76.4814C454.301 76.5816 454.402 76.6998 454.514 76.8361C454.625 76.9723 454.757 77.1333 454.909 77.3191C455.071 77.5173 455.22 77.7056 455.355 77.8841C455.491 78.0626 455.596 78.2295 455.672 78.3849C455.748 78.529 455.783 78.666 455.776 78.7961C455.763 78.9199 455.698 79.0299 455.58 79.1261C455.296 79.3591 455.036 79.3444 454.8 79.082C454.785 79.0635 454.722 78.986 454.61 78.8498C454.494 78.7074 454.357 78.5458 454.198 78.3651C454.047 78.1793 453.889 77.9929 453.726 77.806C453.569 77.614 453.437 77.4586 453.329 77.3398C453.242 77.2458 453.146 77.1481 453.043 77.0468C452.941 76.9342 452.832 76.8266 452.717 76.7242C452.608 76.6166 452.499 76.5204 452.388 76.4353C452.272 76.3441 452.16 76.2704 452.052 76.214C451.798 76.0806 451.583 76.0391 451.408 76.0898C451.232 76.1404 451.07 76.2265 450.921 76.348ZM457.314 76.7161C456.977 76.3411 456.587 75.8899 456.145 75.3624C455.705 74.8236 455.206 74.2136 454.649 73.5324C454.592 73.5892 454.52 73.6531 454.433 73.724C454.353 73.7898 454.288 73.843 454.238 73.8835C454.127 73.9747 454.022 74.0551 453.924 74.1249C453.832 74.1896 453.74 74.2343 453.646 74.2591C453.553 74.2838 453.465 74.2835 453.382 74.2582C453.294 74.2266 453.207 74.1582 453.121 74.0529C452.878 73.7557 452.98 73.4247 453.426 73.0601C453.494 73.0044 453.577 72.936 453.676 72.855C453.775 72.7739 453.864 72.7118 453.942 72.6684C453.674 72.3402 453.465 72.072 453.315 71.8637C453.166 71.6553 453.063 71.4859 453.008 71.3553C452.954 71.2134 452.942 71.1042 452.973 71.0277C453.004 70.9399 453.066 70.858 453.159 70.782C453.258 70.701 453.367 70.6692 453.484 70.6867C453.602 70.7042 453.719 70.7529 453.836 70.8329C453.96 70.9078 454.078 71.0077 454.19 71.1327C454.309 71.2526 454.419 71.3745 454.52 71.4984C454.591 71.5851 454.654 71.6681 454.708 71.7475C454.764 71.8156 454.815 71.8775 454.86 71.9333C454.927 71.8376 455.006 71.7518 455.099 71.6758C455.187 71.5937 455.274 71.5171 455.361 71.4462C455.59 71.2589 455.797 71.1517 455.982 71.1247C456.161 71.0915 456.317 71.1555 456.449 71.3165C456.53 71.4156 456.574 71.5138 456.581 71.6112C456.583 71.7024 456.56 71.7938 456.511 71.8856C456.468 71.9722 456.402 72.0623 456.313 72.1557C456.225 72.2379 456.126 72.3245 456.014 72.4157C455.952 72.4663 455.881 72.5246 455.801 72.5904C455.72 72.6562 455.641 72.7108 455.563 72.7541C455.831 73.0824 456.077 73.3827 456.299 73.6552C456.522 73.9277 456.734 74.1934 456.936 74.4524C457.132 74.7052 457.329 74.958 457.525 75.2107C457.721 75.4635 457.927 75.7343 458.143 76.0231C458.258 76.1768 458.336 76.3041 458.377 76.4048C458.425 76.5005 458.447 76.5852 458.446 76.659C458.444 76.7327 458.423 76.796 458.384 76.8489C458.346 76.8906 458.296 76.9367 458.234 76.9874C458.122 77.0785 457.996 77.1199 457.855 77.1114C457.714 77.0917 457.534 76.9599 457.314 76.7161ZM461.359 71.5641C461.142 71.7413 460.9 71.9132 460.633 72.0797C460.368 72.235 460.05 72.3709 459.68 72.4873C460.045 72.8195 460.432 72.9778 460.843 72.9621C461.26 72.9414 461.711 72.7335 462.194 72.3385C462.367 72.1967 462.514 72.0608 462.635 71.9308C462.757 71.7896 462.861 71.6635 462.946 71.5526C463.026 71.4356 463.099 71.3348 463.164 71.2504C463.224 71.1598 463.288 71.0867 463.357 71.031C463.443 70.9601 463.55 70.9196 463.676 70.9095C463.797 70.8932 463.908 70.9469 464.009 71.0708C464.136 71.2256 464.175 71.4058 464.126 71.6112C464.083 71.8116 463.994 72.0187 463.859 72.2325C463.725 72.4351 463.563 72.6293 463.374 72.815C463.19 73.0069 463.02 73.1661 462.865 73.2928C462.5 73.5915 462.122 73.818 461.731 73.9721C461.347 74.1212 460.962 74.1878 460.577 74.172C460.187 74.1499 459.809 74.0409 459.442 73.8449C459.075 73.6489 458.729 73.3528 458.405 72.9564C458.091 72.5725 457.871 72.1837 457.746 71.7903C457.627 71.3917 457.589 71.0042 457.632 70.6276C457.676 70.2511 457.797 69.8937 457.996 69.5554C458.201 69.2121 458.47 68.9037 458.805 68.6302C459.065 68.4175 459.343 68.2465 459.641 68.1171C459.944 67.9827 460.244 67.9076 460.542 67.8919C460.845 67.8712 461.139 67.9205 461.422 68.0399C461.707 68.148 461.963 68.3414 462.191 68.6201C462.394 68.8678 462.52 69.1164 462.568 69.3658C462.617 69.6151 462.598 69.8633 462.511 70.1104C462.43 70.3524 462.289 70.597 462.088 70.844C461.893 71.086 461.65 71.326 461.359 71.5641ZM459.531 69.4621C459.364 69.5988 459.221 69.7522 459.102 69.9221C458.977 70.0859 458.888 70.2674 458.834 70.4666C458.781 70.6546 458.772 70.8584 458.807 71.0779C458.836 71.2913 458.924 71.519 459.071 71.761C459.392 71.6739 459.682 71.5608 459.94 71.4218C460.194 71.2767 460.444 71.1028 460.692 70.9003C461.057 70.6015 461.291 70.3378 461.394 70.1093C461.497 69.8695 461.453 69.632 461.261 69.3967C461.083 69.1799 460.845 69.0594 460.546 69.0351C460.254 69.0058 459.915 69.1481 459.531 69.4621ZM464.529 65.2203C464.3 65.4077 464.123 65.6145 463.998 65.8408C463.879 66.0619 463.766 66.3405 463.658 66.6765C463.764 66.8066 463.921 66.9986 464.129 67.2525C464.332 67.5002 464.551 67.7752 464.788 68.0776C465.02 68.3737 465.249 68.6667 465.476 68.9567C465.703 69.2466 465.885 69.4952 466.024 69.7023C466.113 69.8363 466.178 69.9481 466.221 70.0376C466.264 70.1158 466.285 70.1862 466.285 70.2487C466.29 70.3061 466.273 70.3612 466.234 70.4141C466.196 70.4558 466.139 70.507 466.065 70.5678C465.991 70.6285 465.926 70.6761 465.872 70.7104C465.818 70.7335 465.763 70.7422 465.707 70.7365C465.646 70.7247 465.578 70.6923 465.504 70.6394C465.429 70.5865 465.338 70.5062 465.229 70.3987C465.126 70.2973 464.992 70.1588 464.827 69.9832C464.669 69.8025 464.498 69.6063 464.315 69.3946C464.127 69.1767 463.938 68.9588 463.75 68.7409C463.562 68.5118 463.39 68.3012 463.233 68.1092C462.975 67.7934 462.768 67.5339 462.612 67.3306C462.462 67.1223 462.336 66.9306 462.234 66.7555C462.059 66.4651 461.974 66.2604 461.98 66.1417C461.987 66.0229 462.042 65.9205 462.148 65.8344C462.303 65.7078 462.453 65.6574 462.598 65.6834C462.749 65.7042 462.915 65.8061 463.096 65.9891C463.163 65.6036 463.278 65.2456 463.442 64.9152C463.612 64.5798 463.837 64.2981 464.115 64.0703C464.382 63.8525 464.674 63.7169 464.992 63.6635C465.316 63.6051 465.663 63.6569 466.034 63.8191C466.257 63.9154 466.474 64.0481 466.685 64.217C466.89 64.3797 467.093 64.5649 467.294 64.7727C467.381 64.8667 467.469 64.9607 467.556 65.0548C467.638 65.1426 467.725 65.2422 467.816 65.3537C467.908 65.4539 468.01 65.5722 468.121 65.7084C468.233 65.8446 468.364 66.0057 468.516 66.1914C468.678 66.3896 468.827 66.5779 468.963 66.7564C469.098 66.9349 469.204 67.1018 469.279 67.2572C469.356 67.4013 469.39 67.5384 469.383 67.6684C469.371 67.7922 469.306 67.9022 469.188 67.9985C468.903 68.2314 468.643 68.2167 468.408 67.9544C468.393 67.9358 468.329 67.8584 468.218 67.7221C468.101 67.5797 467.964 67.4181 467.806 67.2374C467.654 67.0516 467.497 66.8652 467.333 66.6783C467.176 66.4863 467.044 66.3309 466.937 66.2122C466.849 66.1181 466.754 66.0204 466.65 65.9191C466.548 65.8065 466.439 65.699 466.325 65.5965C466.216 65.489 466.106 65.3927 465.995 65.3077C465.88 65.2164 465.768 65.1427 465.659 65.0864C465.406 64.9529 465.191 64.9115 465.015 64.9621C464.84 65.0127 464.678 65.0988 464.529 65.2203ZM470.922 65.5884C470.584 65.2135 470.195 64.7622 469.753 64.2347C469.312 63.6959 468.813 63.0859 468.256 62.4047C468.199 62.4615 468.128 62.5254 468.041 62.5963C467.96 62.6621 467.895 62.7153 467.846 62.7558C467.734 62.847 467.63 62.9274 467.532 62.9972C467.44 63.0619 467.347 63.1066 467.254 63.1314C467.161 63.1561 467.072 63.1558 466.99 63.1305C466.902 63.0989 466.815 63.0305 466.729 62.9252C466.486 62.628 466.587 62.297 467.033 61.9324C467.101 61.8767 467.185 61.8083 467.284 61.7273C467.383 61.6463 467.472 61.5841 467.55 61.5408C467.281 61.2125 467.072 60.9443 466.923 60.736C466.773 60.5277 466.671 60.3582 466.616 60.2276C466.562 60.0858 466.55 59.9766 466.58 59.9C466.612 59.8122 466.674 59.7303 466.767 59.6544C466.866 59.5733 466.974 59.5416 467.092 59.559C467.21 59.5765 467.327 59.6252 467.444 59.7052C467.567 59.7801 467.685 59.88 467.798 60.005C467.916 60.1249 468.026 60.2468 468.128 60.3707C468.199 60.4574 468.261 60.5404 468.316 60.6198C468.372 60.6879 468.422 60.7499 468.468 60.8056C468.534 60.7099 468.614 60.6241 468.707 60.5481C468.795 60.466 468.882 60.3895 468.969 60.3186C469.198 60.1312 469.405 60.024 469.589 59.997C469.769 59.9639 469.924 60.0278 470.056 60.1888C470.137 60.2879 470.181 60.3861 470.189 60.4835C470.191 60.5747 470.167 60.6662 470.118 60.7579C470.076 60.8446 470.01 60.9346 469.921 61.028C469.833 61.1102 469.733 61.1968 469.622 61.288C469.56 61.3386 469.489 61.3969 469.408 61.4627C469.328 61.5285 469.248 61.5831 469.17 61.6264C469.438 61.9547 469.684 62.255 469.907 62.5275C470.13 62.8 470.342 63.0657 470.543 63.3247C470.74 63.5775 470.936 63.8303 471.133 64.0831C471.329 64.3358 471.535 64.6066 471.75 64.8955C471.866 65.0492 471.944 65.1764 471.985 65.2771C472.032 65.3728 472.055 65.4576 472.053 65.5313C472.052 65.605 472.031 65.6684 471.992 65.7213C471.953 65.7629 471.903 65.809 471.841 65.8597C471.73 65.9508 471.603 65.9922 471.462 65.9837C471.322 65.964 471.142 65.8322 470.922 65.5884Z" fill="black"/>
</g>
<g clip-path="url(#clip3_14040_1464)">
<rect x="434" y="104.198" width="73" height="20" rx="10" transform="rotate(-20.1925 434 104.198)" fill="#CCE4EC"/>
<path d="M448.806 112.877C448.692 112.613 448.577 112.335 448.462 112.045C448.354 111.752 448.234 111.438 448.103 111.103C447.971 110.768 447.833 110.405 447.69 110.015C447.543 109.617 447.38 109.174 447.201 108.686C447.005 108.153 446.841 107.697 446.711 107.319C446.578 106.933 446.486 106.613 446.435 106.359C446.384 106.105 446.375 105.908 446.409 105.768C446.45 105.625 446.538 105.528 446.673 105.479C446.741 105.454 446.808 105.438 446.873 105.431C446.939 105.424 447.004 105.438 447.068 105.474C447.13 105.503 447.194 105.56 447.259 105.647C447.33 105.723 447.397 105.835 447.46 105.982C447.574 106.247 447.674 106.483 447.758 106.691C447.843 106.898 447.928 107.106 448.013 107.313C448.095 107.513 448.177 107.726 448.26 107.951C448.34 108.169 448.432 108.417 448.534 108.694C448.658 109.032 448.777 109.355 448.89 109.663C449.003 109.971 449.111 110.276 449.214 110.579C449.317 110.882 449.421 111.189 449.527 111.5C449.633 111.81 449.74 112.137 449.85 112.481C449.908 112.664 449.941 112.81 449.947 112.918C449.952 113.027 449.942 113.116 449.917 113.185C449.891 113.254 449.85 113.303 449.792 113.333C449.738 113.37 449.673 113.402 449.598 113.43C449.463 113.48 449.33 113.478 449.199 113.423C449.065 113.362 448.935 113.18 448.806 112.877ZM452.537 106.851C452.259 106.953 452.024 107.091 451.832 107.264C451.648 107.434 451.45 107.66 451.238 107.943C451.296 108.1 451.382 108.333 451.495 108.641C451.605 108.941 451.723 109.273 451.848 109.636C451.97 109.992 452.091 110.344 452.211 110.692C452.33 111.04 452.422 111.335 452.485 111.576C452.525 111.731 452.55 111.858 452.561 111.957C452.576 112.045 452.574 112.118 452.553 112.177C452.539 112.233 452.505 112.28 452.451 112.317C452.401 112.344 452.331 112.374 452.241 112.407C452.151 112.44 452.074 112.464 452.011 112.479C451.953 112.483 451.899 112.473 451.847 112.449C451.793 112.418 451.74 112.365 451.687 112.291C451.634 112.217 451.574 112.111 451.506 111.974C451.441 111.844 451.36 111.67 451.262 111.45C451.172 111.227 451.075 110.986 450.97 110.726C450.864 110.459 450.757 110.191 450.65 109.923C450.548 109.646 450.454 109.39 450.368 109.158C450.227 108.775 450.116 108.462 450.036 108.219C449.962 107.973 449.906 107.751 449.867 107.552C449.796 107.22 449.783 106.999 449.828 106.889C449.872 106.778 449.959 106.7 450.086 106.653C450.274 106.584 450.432 106.585 450.561 106.657C450.697 106.727 450.821 106.877 450.932 107.109C451.121 106.767 451.347 106.466 451.61 106.208C451.88 105.946 452.185 105.753 452.522 105.629C452.845 105.51 453.166 105.478 453.484 105.531C453.809 105.582 454.121 105.745 454.418 106.019C454.597 106.183 454.759 106.379 454.903 106.608C455.043 106.829 455.175 107.07 455.297 107.332C455.349 107.449 455.4 107.567 455.452 107.684C455.501 107.794 455.55 107.917 455.6 108.052C455.654 108.177 455.712 108.322 455.773 108.487C455.833 108.652 455.905 108.847 455.988 109.072C456.076 109.313 456.156 109.539 456.225 109.752C456.295 109.965 456.34 110.158 456.361 110.329C456.386 110.49 456.374 110.631 456.324 110.752C456.272 110.865 456.175 110.947 456.032 111C455.687 111.127 455.446 111.028 455.309 110.703C455.301 110.681 455.266 110.587 455.206 110.421C455.142 110.249 455.065 110.051 454.975 109.829C454.892 109.603 454.804 109.376 454.711 109.146C454.625 108.913 454.551 108.723 454.488 108.576C454.437 108.458 454.378 108.335 454.314 108.205C454.254 108.065 454.186 107.928 454.111 107.794C454.044 107.657 453.972 107.53 453.895 107.413C453.815 107.289 453.733 107.183 453.649 107.094C453.453 106.885 453.264 106.776 453.081 106.766C452.899 106.756 452.717 106.785 452.537 106.851ZM456.513 105.645C456.433 105.683 456.353 105.72 456.273 105.758C456.198 105.786 456.123 105.814 456.048 105.841C455.8 105.932 455.603 105.962 455.455 105.932C455.297 105.896 455.176 105.765 455.094 105.54C455.03 105.367 455.029 105.214 455.091 105.081C455.142 104.943 455.307 104.822 455.585 104.72C455.757 104.657 455.938 104.603 456.126 104.559L455.886 103.906C455.776 103.606 455.705 103.308 455.673 103.013C455.641 102.718 455.659 102.443 455.727 102.187C455.792 101.925 455.916 101.692 456.097 101.489C456.283 101.276 456.541 101.108 456.871 100.987C457.171 100.876 457.398 100.844 457.551 100.89C457.702 100.928 457.813 101.045 457.885 101.24C457.957 101.436 457.922 101.585 457.781 101.688C457.64 101.791 457.468 101.88 457.265 101.954C457.017 102.045 456.87 102.223 456.822 102.488C456.782 102.75 456.82 103.038 456.936 103.354L457.226 104.142C457.315 104.084 457.405 104.038 457.495 104.005C457.59 103.961 457.69 103.92 457.795 103.882C458.073 103.78 458.285 103.753 458.43 103.801C458.584 103.847 458.696 103.968 458.768 104.163C458.859 104.411 458.84 104.601 458.71 104.734C458.577 104.86 458.379 104.971 458.116 105.068C458.049 105.093 457.97 105.122 457.88 105.155C457.797 105.185 457.712 105.208 457.624 105.223L459.049 109.098C459.115 109.278 459.151 109.422 459.157 109.531C459.163 109.64 459.149 109.73 459.116 109.802C459.082 109.874 459.033 109.926 458.969 109.958C458.907 109.998 458.838 110.032 458.763 110.059C458.695 110.084 458.624 110.098 458.548 110.1C458.475 110.11 458.402 110.098 458.33 110.065C458.263 110.022 458.193 109.958 458.119 109.874C458.054 109.787 457.993 109.669 457.938 109.519L456.513 105.645ZM461.299 108.334C461.192 108.066 461.069 107.754 460.929 107.396C460.789 107.038 460.638 106.651 460.475 106.233C460.321 105.813 460.154 105.371 459.975 104.908C459.804 104.443 459.629 103.966 459.449 103.478C459.253 102.945 459.089 102.485 458.955 102.1C458.822 101.714 458.725 101.392 458.664 101.133C458.61 100.871 458.6 100.67 458.634 100.53C458.665 100.382 458.748 100.284 458.883 100.234C459.011 100.187 459.138 100.187 459.266 100.234C459.394 100.28 459.521 100.451 459.646 100.746C459.875 101.275 460.101 101.832 460.324 102.415C460.544 102.99 460.758 103.559 460.965 104.122C461.089 104.46 461.209 104.787 461.325 105.102C461.439 105.41 461.548 105.719 461.654 106.03C461.757 106.333 461.862 106.644 461.971 106.962C462.079 107.28 462.188 107.611 462.297 107.954C462.356 108.137 462.389 108.283 462.394 108.391C462.408 108.497 462.402 108.585 462.376 108.654C462.35 108.723 462.309 108.772 462.251 108.802C462.204 108.836 462.143 108.867 462.068 108.895C461.933 108.945 461.804 108.941 461.681 108.884C461.555 108.82 461.427 108.636 461.299 108.334ZM463.11 102.617C463.197 102.807 463.288 103.042 463.382 103.323C463.484 103.601 463.596 103.892 463.717 104.197C463.842 104.492 463.98 104.786 464.131 105.08C464.279 105.367 464.442 105.614 464.621 105.821C464.807 106.025 465.01 106.172 465.23 106.262C465.458 106.348 465.707 106.342 465.978 106.242C466.248 106.143 466.438 105.988 466.548 105.777C466.665 105.563 466.725 105.32 466.727 105.046C466.736 104.77 466.704 104.475 466.631 104.161C466.556 103.839 466.466 103.527 466.363 103.224C466.265 102.91 466.161 102.616 466.052 102.341C465.949 102.063 465.87 101.824 465.813 101.623C465.672 101.147 465.778 100.844 466.131 100.714C466.266 100.664 466.385 100.663 466.487 100.71C466.59 100.758 466.681 100.844 466.761 100.968C466.848 101.089 466.93 101.242 467.007 101.427C467.083 101.612 467.164 101.821 467.25 102.054C467.427 102.534 467.584 103.043 467.722 103.581C467.865 104.108 467.929 104.617 467.913 105.109C467.905 105.597 467.787 106.041 467.559 106.441C467.331 106.84 466.939 107.142 466.384 107.346C465.828 107.55 465.334 107.574 464.901 107.418C464.469 107.262 464.087 107.001 463.757 106.637C463.435 106.27 463.153 105.841 462.913 105.349C462.677 104.848 462.471 104.357 462.295 103.876C462.209 103.644 462.135 103.432 462.074 103.241C462.012 103.051 461.972 102.883 461.952 102.736C461.94 102.588 461.958 102.462 462.005 102.359C462.052 102.256 462.144 102.18 462.279 102.13C462.632 102.001 462.909 102.163 463.11 102.617ZM471.95 102.806C471.687 102.902 471.403 102.986 471.096 103.056C470.794 103.116 470.449 103.14 470.062 103.129C470.298 103.563 470.612 103.839 471.006 103.958C471.407 104.075 471.9 104.026 472.486 103.81C472.696 103.733 472.88 103.653 473.036 103.57C473.198 103.476 473.337 103.391 473.454 103.314C473.568 103.229 473.669 103.158 473.759 103.099C473.845 103.034 473.93 102.985 474.012 102.955C474.117 102.916 474.231 102.913 474.354 102.944C474.473 102.969 474.561 103.056 474.616 103.206C474.685 103.394 474.663 103.577 474.549 103.755C474.443 103.93 474.292 104.097 474.094 104.255C473.901 104.402 473.685 104.533 473.445 104.647C473.209 104.768 472.996 104.863 472.809 104.932C472.366 105.095 471.934 105.185 471.515 105.203C471.103 105.218 470.717 105.156 470.359 105.015C469.997 104.866 469.675 104.64 469.393 104.334C469.11 104.029 468.88 103.636 468.703 103.156C468.532 102.69 468.452 102.251 468.462 101.838C468.479 101.423 468.57 101.044 468.734 100.702C468.899 100.361 469.13 100.063 469.428 99.8078C469.734 99.5504 470.09 99.3471 470.495 99.198C470.811 99.0821 471.13 99.0115 471.453 98.9864C471.784 98.9585 472.092 98.9858 472.378 99.0681C472.672 99.1477 472.933 99.2903 473.162 99.4959C473.396 99.6912 473.575 99.9578 473.699 100.296C473.81 100.596 473.847 100.872 473.812 101.124C473.777 101.375 473.677 101.604 473.514 101.809C473.358 102.011 473.145 102.196 472.874 102.363C472.611 102.528 472.303 102.676 471.95 102.806ZM470.91 100.222C470.707 100.296 470.522 100.394 470.354 100.516C470.182 100.63 470.039 100.772 469.922 100.943C469.811 101.103 469.736 101.293 469.697 101.512C469.655 101.723 469.664 101.967 469.723 102.244C470.055 102.266 470.366 102.254 470.656 102.208C470.943 102.153 471.237 102.071 471.537 101.96C471.98 101.797 472.287 101.625 472.459 101.442C472.635 101.25 472.671 101.011 472.566 100.725C472.469 100.462 472.284 100.271 472.009 100.15C471.742 100.027 471.376 100.051 470.91 100.222ZM477.02 97.8469C476.742 97.9491 476.507 98.0866 476.315 98.2596C476.13 98.4297 475.932 98.656 475.721 98.9384C475.779 99.0961 475.864 99.3288 475.978 99.6367C476.088 99.937 476.206 100.269 476.331 100.632C476.453 100.988 476.574 101.339 476.694 101.688C476.813 102.036 476.904 102.33 476.967 102.571C477.008 102.727 477.033 102.854 477.044 102.952C477.059 103.041 477.056 103.114 477.035 103.173C477.022 103.229 476.988 103.276 476.933 103.313C476.883 103.34 476.813 103.37 476.723 103.403C476.633 103.436 476.557 103.46 476.494 103.474C476.436 103.479 476.381 103.469 476.33 103.445C476.276 103.414 476.222 103.361 476.169 103.287C476.116 103.213 476.056 103.107 475.989 102.97C475.924 102.84 475.843 102.665 475.745 102.446C475.655 102.223 475.557 101.982 475.453 101.722C475.346 101.454 475.239 101.187 475.132 100.919C475.03 100.641 474.936 100.386 474.851 100.153C474.71 99.7705 474.599 99.4575 474.518 99.2145C474.445 98.9687 474.389 98.7464 474.35 98.5477C474.279 98.2157 474.266 97.9947 474.31 97.8845C474.355 97.7743 474.441 97.6957 474.569 97.6488C474.757 97.5797 474.915 97.5812 475.044 97.6532C475.18 97.7224 475.303 97.873 475.414 98.105C475.604 97.7625 475.83 97.462 476.093 97.2034C476.363 96.942 476.667 96.7491 477.005 96.6249C477.328 96.5061 477.648 96.4735 477.966 96.527C478.292 96.5778 478.603 96.7403 478.9 97.0147C479.08 97.1788 479.242 97.375 479.385 97.6035C479.526 97.8244 479.658 98.0659 479.78 98.3279C479.831 98.4453 479.883 98.5626 479.935 98.68C479.984 98.7899 480.033 98.9124 480.083 99.0475C480.137 99.1724 480.195 99.3174 480.255 99.4826C480.316 99.6478 480.388 99.843 480.471 100.068C480.559 100.309 480.638 100.535 480.708 100.748C480.778 100.961 480.823 101.153 480.843 101.325C480.869 101.486 480.856 101.627 480.807 101.747C480.755 101.86 480.657 101.943 480.515 101.996C480.169 102.123 479.928 102.024 479.792 101.699C479.784 101.676 479.749 101.582 479.688 101.417C479.625 101.245 479.548 101.047 479.457 100.824C479.375 100.599 479.287 100.372 479.194 100.142C479.108 99.9089 479.034 99.7188 478.971 99.5714C478.919 99.454 478.861 99.3305 478.796 99.2009C478.736 99.061 478.669 98.9239 478.594 98.7895C478.526 98.6523 478.454 98.5255 478.377 98.4089C478.298 98.2848 478.216 98.1785 478.132 98.0899C477.936 97.8808 477.746 97.7714 477.564 97.7619C477.381 97.7523 477.2 97.7806 477.02 97.8469ZM482.862 94.6242C483.08 94.5441 483.305 94.4828 483.536 94.4402C483.775 94.3949 483.997 94.3729 484.202 94.3742C484.407 94.3755 484.584 94.4043 484.733 94.4605C484.881 94.5167 484.979 94.6086 485.026 94.7362C485.147 95.0666 485.02 95.3008 484.645 95.4389C484.555 95.472 484.464 95.4925 484.374 95.5004C484.287 95.4979 484.188 95.5048 484.074 95.5209C483.958 95.5296 483.817 95.5516 483.651 95.5871C483.482 95.615 483.282 95.6718 483.049 95.7574C482.553 95.9397 482.233 96.2494 482.086 96.6867C481.94 97.124 481.967 97.6129 482.166 98.1535C482.384 98.7467 482.694 99.1738 483.097 99.4348C483.508 99.693 483.964 99.7296 484.467 99.5446C484.783 99.4286 485.028 99.3084 485.204 99.1841C485.38 99.0597 485.516 98.9417 485.611 98.8299C485.714 98.7154 485.793 98.618 485.849 98.5379C485.912 98.4549 485.992 98.3955 486.09 98.3596C486.225 98.3099 486.341 98.3013 486.438 98.3337C486.54 98.3559 486.623 98.4534 486.687 98.6261C486.753 98.8063 486.74 98.9902 486.647 99.1778C486.561 99.3626 486.43 99.5388 486.253 99.7062C486.076 99.8736 485.872 100.025 485.64 100.162C485.417 100.295 485.203 100.399 485.001 100.474C484.092 100.808 483.286 100.818 482.583 100.506C481.88 100.193 481.359 99.5754 481.019 98.6519C480.873 98.2539 480.795 97.8564 480.785 97.4594C480.78 97.052 480.852 96.6676 481 96.3062C481.149 95.9448 481.374 95.619 481.677 95.3287C481.986 95.0358 482.382 94.8009 482.862 94.6242ZM489.845 96.2244C489.582 96.321 489.297 96.4044 488.99 96.4746C488.689 96.5345 488.344 96.559 487.956 96.5481C488.192 96.9812 488.507 97.2576 488.9 97.3771C489.301 97.4939 489.795 97.4446 490.38 97.2292C490.591 97.1519 490.774 97.0716 490.931 96.9883C491.093 96.8948 491.232 96.8095 491.348 96.7325C491.462 96.6481 491.564 96.5766 491.653 96.5182C491.74 96.4522 491.824 96.4041 491.907 96.3737C492.012 96.3351 492.126 96.3316 492.248 96.3632C492.368 96.3874 492.455 96.4746 492.511 96.6247C492.58 96.8125 492.557 96.9954 492.444 97.1735C492.338 97.3489 492.186 97.5155 491.989 97.6734C491.796 97.8211 491.579 97.9517 491.34 98.0654C491.103 98.1865 490.891 98.2816 490.703 98.3507C490.26 98.5136 489.829 98.604 489.409 98.622C488.997 98.6371 488.612 98.5743 488.253 98.4334C487.892 98.2851 487.57 98.0583 487.287 97.7531C487.004 97.448 486.775 97.0551 486.598 96.5746C486.427 96.1091 486.346 95.6699 486.356 95.257C486.374 94.8414 486.465 94.4627 486.629 94.1211C486.793 93.7794 487.024 93.4813 487.323 93.2266C487.629 92.9692 487.984 92.7659 488.39 92.6168C488.705 92.5008 489.025 92.4303 489.348 92.4052C489.678 92.3773 489.987 92.4045 490.273 92.4869C490.566 92.5665 490.828 92.709 491.057 92.9146C491.29 93.1099 491.469 93.3765 491.594 93.7144C491.704 94.0147 491.742 94.2907 491.706 94.5424C491.671 94.794 491.572 95.0223 491.409 95.2273C491.253 95.4295 491.039 95.6145 490.769 95.7822C490.506 95.9472 490.197 96.0946 489.845 96.2244ZM488.805 93.6405C488.602 93.7151 488.416 93.8131 488.248 93.9347C488.077 94.0488 487.933 94.1912 487.817 94.3618C487.706 94.5221 487.63 94.7117 487.592 94.9306C487.55 95.1419 487.559 95.3859 487.618 95.6625C487.95 95.6852 488.261 95.6731 488.551 95.6263C488.837 95.5719 489.131 95.4895 489.431 95.3791C489.874 95.2161 490.182 95.0435 490.353 94.861C490.53 94.6683 490.565 94.4293 490.46 94.144C490.364 93.8812 490.178 93.6895 489.904 93.5688C489.637 93.4454 489.27 93.4693 488.805 93.6405ZM493.836 96.3291C493.709 96.0774 493.573 95.7652 493.428 95.3925C493.282 95.0199 493.111 94.567 492.915 94.0339C492.722 93.5083 492.566 93.0841 492.447 92.7612C492.336 92.4356 492.253 92.142 492.2 91.8805C492.124 91.5588 492.107 91.3391 492.149 91.2214C492.199 91.1009 492.287 91.0172 492.415 90.9703C492.505 90.9371 492.587 90.9157 492.66 90.9058C492.74 90.8932 492.816 90.9035 492.888 90.9368C492.965 90.9597 493.035 91.0107 493.098 91.0898C493.161 91.1688 493.222 91.2872 493.28 91.4449C493.291 91.4749 493.306 91.5036 493.324 91.5308C493.335 91.5609 493.348 91.5947 493.361 91.6322C493.38 91.6595 493.398 91.6956 493.414 91.7407C493.523 91.4108 493.672 91.1089 493.861 90.8348C494.057 90.5579 494.321 90.3588 494.651 90.2373C495.094 90.0743 495.383 90.1768 495.519 90.5447C495.568 90.6799 495.58 90.8036 495.553 90.9158C495.533 91.0252 495.482 91.1293 495.399 91.228C495.321 91.3164 495.22 91.4005 495.096 91.4803C494.979 91.5573 494.847 91.6398 494.701 91.7278C494.477 91.8612 494.284 92.0304 494.12 92.2353C493.954 92.4328 493.868 92.6392 493.862 92.8545C493.915 92.9972 493.953 93.1023 493.978 93.1698C494.011 93.2347 494.035 93.2896 494.052 93.3346C494.076 93.3769 494.097 93.4244 494.117 93.4769C494.136 93.5295 494.166 93.6121 494.208 93.7247C494.349 94.1076 494.474 94.4708 494.583 94.8142C494.689 95.1501 494.807 95.516 494.935 95.9119C494.994 96.0949 495.023 96.2421 495.021 96.3535C495.027 96.4622 495.013 96.5524 494.98 96.6243C494.954 96.6934 494.913 96.7428 494.856 96.7724C494.801 96.8095 494.744 96.8391 494.684 96.8612C494.473 96.9385 494.314 96.9459 494.206 96.8834C494.103 96.8107 493.979 96.6259 493.836 96.3291Z" fill="black"/>
</g>
<rect x="445.211" y="122" width="34" height="20" rx="10" transform="rotate(9.23792 445.211 122)" fill="#C7FFEE"/>
<path d="M458.605 137.742C458.556 137.54 458.505 137.309 458.45 137.048C458.404 136.782 458.352 136.502 458.295 136.209C458.057 136.178 457.807 136.145 457.545 136.111C457.284 136.069 457.02 136.026 456.751 135.982C456.412 135.927 456.104 135.877 455.827 135.832C455.551 135.787 455.299 135.742 455.071 135.697C454.931 135.957 454.798 136.203 454.672 136.434C454.545 136.665 454.427 136.868 454.317 137.045C454.094 137.422 453.832 137.586 453.532 137.537C453.421 137.519 453.32 137.466 453.229 137.379C453.146 137.292 453.115 137.182 453.137 137.048C453.159 136.913 453.211 136.743 453.293 136.538C453.376 136.325 453.473 136.101 453.584 135.868C453.704 135.628 453.829 135.385 453.958 135.139C454.089 134.884 454.212 134.649 454.328 134.433C454.448 134.193 454.611 133.891 454.816 133.527C455.03 133.157 455.255 132.772 455.49 132.373C455.725 131.973 455.959 131.582 456.192 131.198C456.426 130.807 456.635 130.468 456.819 130.182C456.864 130.108 456.917 130.027 456.98 129.94C457.044 129.845 457.115 129.76 457.192 129.683C457.277 129.608 457.364 129.545 457.454 129.495C457.551 129.446 457.651 129.429 457.753 129.446C457.856 129.463 457.945 129.514 458.02 129.599C458.097 129.676 458.159 129.767 458.207 129.872C458.262 129.979 458.306 130.087 458.336 130.197C458.375 130.309 458.404 130.407 458.422 130.491C458.497 130.827 458.58 131.214 458.671 131.65C458.771 132.088 458.865 132.528 458.955 132.973C459.053 133.418 459.142 133.842 459.222 134.244C459.303 134.646 459.365 134.985 459.41 135.259C459.443 135.5 459.483 135.757 459.527 136.032C459.579 136.308 459.625 136.579 459.662 136.844C459.7 137.11 459.725 137.357 459.736 137.586C459.757 137.808 459.756 137.986 459.735 138.121C459.713 138.255 459.645 138.349 459.53 138.403C459.424 138.459 459.316 138.478 459.205 138.46C459.063 138.437 458.94 138.368 458.837 138.254C458.736 138.132 458.658 137.962 458.605 137.742ZM456.932 134.796C457.121 134.826 457.31 134.861 457.499 134.9C457.688 134.931 457.877 134.965 458.065 135.004C458.015 134.712 457.966 134.421 457.916 134.129C457.866 133.837 457.818 133.558 457.772 133.291C457.735 133.025 457.697 132.78 457.661 132.556C457.634 132.324 457.61 132.122 457.59 131.948C457.575 131.84 457.553 131.752 457.523 131.682C457.494 131.613 457.448 131.573 457.385 131.562C457.322 131.552 457.265 131.579 457.214 131.644C457.164 131.701 457.115 131.778 457.067 131.875C456.919 132.184 456.716 132.584 456.458 133.077C456.208 133.563 455.943 134.075 455.661 134.613C455.875 134.64 456.089 134.671 456.302 134.705C456.517 134.732 456.727 134.762 456.932 134.796ZM465.623 139.48C465.466 139.454 465.342 139.369 465.252 139.225C465.17 139.082 465.122 138.924 465.11 138.752C465.001 138.823 464.876 138.892 464.736 138.958C464.603 139.026 464.451 139.086 464.281 139.14C464.111 139.185 463.928 139.216 463.731 139.233C463.533 139.249 463.324 139.239 463.103 139.203C462.835 139.16 462.542 139.067 462.224 138.927C461.916 138.779 461.634 138.571 461.377 138.303C461.13 138.027 460.94 137.68 460.805 137.261C460.679 136.844 460.663 136.343 460.758 135.758C460.839 135.261 460.986 134.831 461.199 134.468C461.412 134.106 461.673 133.816 461.984 133.599C462.304 133.376 462.661 133.227 463.054 133.153C463.456 133.073 463.878 133.068 464.32 133.14C464.699 133.202 464.992 133.294 465.199 133.417C465.406 133.54 465.563 133.671 465.67 133.81C465.705 133.596 465.744 133.356 465.788 133.087C465.833 132.811 465.876 132.546 465.917 132.293C465.967 132.034 466.01 131.798 466.044 131.585C466.087 131.373 466.121 131.212 466.147 131.103C466.206 130.837 466.283 130.663 466.378 130.581C466.473 130.491 466.62 130.463 466.817 130.495C467.023 130.528 467.153 130.602 467.207 130.716C467.27 130.824 467.29 131.001 467.266 131.249C467.257 131.352 467.239 131.491 467.211 131.665C467.19 131.84 467.163 132.03 467.13 132.235C467.097 132.441 467.063 132.65 467.028 132.863C467.002 133.07 466.975 133.26 466.947 133.434C466.92 133.599 466.898 133.738 466.88 133.848C466.862 133.959 466.853 134.014 466.853 134.014C466.722 134.819 466.593 135.56 466.467 136.237C466.349 136.915 466.257 137.455 466.191 137.858C466.193 137.947 466.211 138.035 466.246 138.122C466.288 138.21 466.33 138.298 466.373 138.386C466.423 138.475 466.465 138.567 466.498 138.661C466.531 138.756 466.54 138.851 466.525 138.945C466.507 139.056 466.463 139.15 466.394 139.228C466.326 139.298 466.244 139.354 466.148 139.395C466.06 139.437 465.966 139.466 465.866 139.483C465.775 139.492 465.695 139.491 465.623 139.48ZM463.507 138.065C463.997 138.145 464.395 138.06 464.704 137.81C465.012 137.56 465.22 137.1 465.329 136.429C465.539 135.142 465.134 134.415 464.116 134.25C463.879 134.211 463.644 134.209 463.411 134.245C463.179 134.28 462.963 134.358 462.765 134.48C462.575 134.603 462.406 134.77 462.258 134.981C462.118 135.193 462.023 135.457 461.971 135.773C461.929 136.034 461.924 136.288 461.956 136.537C461.997 136.786 462.077 137.018 462.196 137.232C462.324 137.439 462.494 137.617 462.705 137.765C462.924 137.914 463.191 138.014 463.507 138.065Z" fill="black"/>
<defs>
<clipPath id="clip0_14040_1464">
<rect x="389" y="67.8916" width="42" height="20" rx="10" transform="rotate(-85.8887 389 67.8916)" fill="white"/>
</clipPath>
<clipPath id="clip1_14040_1464">
<rect x="408" y="74.458" width="87" height="20" rx="10" transform="rotate(-58.8528 408 74.458)" fill="white"/>
</clipPath>
<clipPath id="clip2_14040_1464">
<rect x="424" y="86.8818" width="63" height="20" rx="10" transform="rotate(-39.2749 424 86.8818)" fill="white"/>
</clipPath>
<clipPath id="clip3_14040_1464">
<rect x="434" y="104.198" width="73" height="20" rx="10" transform="rotate(-20.1925 434 104.198)" fill="white"/>
</clipPath>
</defs>
</svg>
