<svg width="128" height="128" viewBox="0 0 128 128" fill="none" xmlns="http://www.w3.org/2000/svg">
<g filter="url(#filter0_dd_12203_3293)">
<circle cx="64" cy="34" r="29" transform="rotate(-180 64 34)" fill="black" fill-opacity="0.32"/>
</g>
<path d="M71.4616 35.8228C71.3705 35.9163 71.0268 36.3158 70.7066 36.6445C68.8295 38.7115 63.9326 42.0949 61.3696 43.1276C60.9803 43.2935 59.9962 43.6448 59.4704 43.6673C58.9666 43.6673 58.4864 43.5513 58.0281 43.3161C57.4568 42.9874 56.9985 42.4703 56.7473 41.8597C56.5857 41.4359 56.3346 40.168 56.3346 40.1454C56.0834 38.7583 55.9453 36.5043 55.9453 34.0135C55.9453 31.6404 56.0834 29.4783 56.289 28.0702C56.3126 28.0476 56.5637 26.4719 56.8384 25.9322C57.3422 24.9462 58.3263 24.334 59.3794 24.334L59.4705 24.334C60.1563 24.3582 61.5987 24.9704 61.5987 24.9929C64.0236 26.0273 68.8075 29.2447 70.7302 31.3826C70.7302 31.3826 71.2717 31.932 71.5071 32.2752C71.8744 32.7682 72.0564 33.3788 72.0564 33.9894C72.0564 34.6709 71.8508 35.3057 71.4616 35.8228Z" fill="white"/>
<defs>
<filter id="filter0_dd_12203_3293" x="0" y="0" width="128" height="128" filterUnits="userSpaceOnUse" color-interpolation-filters="sRGB">
<feFlood flood-opacity="0" result="BackgroundImageFix"/>
<feColorMatrix in="SourceAlpha" type="matrix" values="0 0 0 0 0 0 0 0 0 0 0 0 0 0 0 0 0 0 127 0" result="hardAlpha"/>
<feMorphology radius="5" operator="erode" in="SourceAlpha" result="effect1_dropShadow_12203_3293"/>
<feOffset dy="30"/>
<feGaussianBlur stdDeviation="20"/>
<feColorMatrix type="matrix" values="0 0 0 0 0.0784314 0 0 0 0 0.145098 0 0 0 0 0.247059 0 0 0 0.08 0"/>
<feBlend mode="normal" in2="BackgroundImageFix" result="effect1_dropShadow_12203_3293"/>
<feColorMatrix in="SourceAlpha" type="matrix" values="0 0 0 0 0 0 0 0 0 0 0 0 0 0 0 0 0 0 127 0" result="hardAlpha"/>
<feOffset/>
<feGaussianBlur stdDeviation="0.5"/>
<feColorMatrix type="matrix" values="0 0 0 0 0.0470588 0 0 0 0 0.101961 0 0 0 0 0.294118 0 0 0 0.1 0"/>
<feBlend mode="normal" in2="effect1_dropShadow_12203_3293" result="effect2_dropShadow_12203_3293"/>
<feBlend mode="normal" in="SourceGraphic" in2="effect2_dropShadow_12203_3293" result="shape"/>
</filter>
</defs>
</svg>
